<?xml version="1.0" encoding="utf-8"?>
<!-- Generator: Adobe Illustrator 19.2.1, SVG Export Plug-In . SVG Version: 6.00 Build 0)  -->
<svg version="1.1" id="Ebene_1" xmlns="http://www.w3.org/2000/svg" xmlns:xlink="http://www.w3.org/1999/xlink" x="0px" y="0px"
	 viewBox="0 0 167.4 89.7" style="enable-background:new 0 0 167.4 89.7;" xml:space="preserve">
<style type="text/css">
	.st0{fill:#FF0000;}
	.st1{fill:#FFCC00;}
</style>
<g>
	<path d="M55.6,12.3V1h5.6l-0.1,1.1h-4v4.2h3.7v1.1h-3.7v4.9C57.1,12.3,55.6,12.3,55.6,12.3z M67.6,7.1c0,0.3,0,0.6,0,0.9
		c0,0.2,0,0.4-0.1,0.6h-4c0,0.9,0.2,1.6,0.6,2.1c0.4,0.4,0.9,0.7,1.5,0.7c0.2,0,0.4,0,0.6-0.1c0.4-0.1,0.7-0.3,1-0.6l0.5,0.9
		c-0.1,0.1-0.1,0.1-0.2,0.2c-0.1,0.1-0.3,0.2-0.4,0.3c-0.2,0.1-0.5,0.2-0.7,0.3c-0.3,0.1-0.6,0.1-1,0.1c-0.5,0-0.9-0.1-1.3-0.2
		c-0.4-0.2-0.7-0.4-1-0.8c-0.3-0.3-0.5-0.8-0.6-1.3c-0.2-0.5-0.2-1.2-0.2-1.9c0-0.7,0.1-1.3,0.2-1.8c0.2-0.5,0.4-0.9,0.6-1.3
		c0.3-0.3,0.6-0.6,1-0.7c0.4-0.2,0.8-0.2,1.2-0.2c0.8,0,1.3,0.2,1.8,0.7C67.4,5.5,67.6,6.2,67.6,7.1L67.6,7.1z M65.1,5.4
		c-0.5,0-0.8,0.2-1.1,0.6c-0.3,0.4-0.5,1-0.5,1.7h2.9c0-0.1,0-0.1,0-0.2c0-0.1,0-0.2,0-0.3c0-0.5-0.1-1-0.3-1.3
		C65.8,5.5,65.5,5.4,65.1,5.4L65.1,5.4z M69,8.5c0-0.8,0.1-1.5,0.3-2c0.2-0.5,0.5-1,0.8-1.3s0.7-0.6,1.1-0.7
		c0.4-0.1,0.8-0.2,1.2-0.2c0.3,0,0.5,0,0.7,0.1c0.2,0,0.3,0.1,0.5,0.1V0.7l1.3-0.1v11.7h-1.2v-0.8h0c-0.1,0.2-0.3,0.5-0.5,0.6
		c-0.2,0.1-0.4,0.2-0.6,0.3c-0.2,0.1-0.5,0.1-0.8,0.1c-0.4,0-0.7-0.1-1.1-0.2c-0.3-0.2-0.6-0.4-0.9-0.7c-0.3-0.3-0.5-0.7-0.6-1.2
		C69.1,9.9,69,9.2,69,8.5z M72.1,11.4c0.5,0,1-0.2,1.3-0.5c0.1-0.1,0.1-0.2,0.2-0.2V5.7c-0.1-0.1-0.3-0.1-0.4-0.2
		c-0.2-0.1-0.4-0.1-0.6-0.1c-0.3,0-0.6,0.1-0.9,0.2c-0.3,0.1-0.5,0.3-0.7,0.5c-0.2,0.2-0.4,0.6-0.5,0.9c-0.1,0.4-0.2,0.9-0.2,1.4
		c0,0.5,0,1,0.1,1.4c0.1,0.4,0.2,0.7,0.4,0.9c0.2,0.2,0.3,0.4,0.6,0.5C71.7,11.3,71.9,11.4,72.1,11.4z M82,7.1c0,0.3,0,0.6,0,0.9
		c0,0.2,0,0.4-0.1,0.6h-4c0,0.9,0.2,1.6,0.6,2.1c0.4,0.4,0.9,0.7,1.5,0.7c0.2,0,0.4,0,0.6-0.1c0.4-0.1,0.7-0.3,1-0.6l0.5,0.9
		c-0.1,0.1-0.1,0.1-0.2,0.2c-0.1,0.1-0.3,0.2-0.4,0.3c-0.2,0.1-0.4,0.2-0.7,0.3c-0.3,0.1-0.6,0.1-1,0.1c-0.5,0-0.9-0.1-1.3-0.2
		c-0.4-0.2-0.7-0.4-1-0.8c-0.3-0.3-0.5-0.8-0.7-1.3c-0.2-0.5-0.2-1.2-0.2-1.9c0-0.7,0.1-1.3,0.2-1.8C77,6,77.2,5.6,77.5,5.2
		c0.3-0.3,0.6-0.6,0.9-0.7c0.4-0.2,0.8-0.2,1.2-0.2c0.8,0,1.3,0.2,1.8,0.7C81.8,5.5,82,6.2,82,7.1L82,7.1z M79.5,5.4
		c-0.5,0-0.8,0.2-1.1,0.6c-0.3,0.4-0.4,1-0.5,1.7h2.9c0-0.1,0-0.1,0-0.2c0-0.1,0-0.2,0-0.3c0-0.5-0.1-1-0.3-1.3
		C80.3,5.5,79.9,5.4,79.5,5.4L79.5,5.4z M87.2,5.6c-0.1,0-0.1-0.1-0.2-0.1c-0.1,0-0.3-0.1-0.4-0.1c-0.4,0-0.7,0.1-1,0.3
		c-0.2,0.2-0.4,0.5-0.5,0.7v5.8h-1.3V4.5H85v1.1h0c0.1-0.2,0.1-0.3,0.2-0.4c0.1-0.1,0.2-0.3,0.3-0.4c0.1-0.1,0.3-0.2,0.5-0.3
		c0.2-0.1,0.4-0.1,0.6-0.1c0.2,0,0.3,0,0.4,0.1c0.1,0,0.2,0.1,0.3,0.1L87.2,5.6L87.2,5.6z M88,10.3c0-0.5,0.1-0.8,0.3-1.1
		c0.2-0.3,0.4-0.6,0.7-0.7c0.3-0.2,0.7-0.3,1-0.4c0.4-0.1,0.8-0.1,1.3-0.1h0.4V7.2c0-0.7-0.1-1.1-0.4-1.4c-0.2-0.3-0.6-0.4-1-0.4
		c-0.4,0-0.7,0.1-1,0.3c-0.3,0.2-0.5,0.3-0.6,0.4l-0.6-0.9c0.1-0.1,0.2-0.2,0.3-0.3c0.1-0.1,0.3-0.2,0.5-0.3s0.4-0.2,0.7-0.2
		s0.5-0.1,0.9-0.1c0.8,0,1.4,0.2,1.8,0.7C92.8,5.4,93,6.1,93,7.1v3.6c0,0.3,0,0.7,0,1c0,0.3,0,0.5,0.1,0.6h-1.3l-0.1-0.9h0
		c0,0.1-0.1,0.2-0.2,0.3c-0.1,0.1-0.2,0.2-0.3,0.3c-0.1,0.1-0.3,0.2-0.5,0.3c-0.2,0.1-0.4,0.1-0.7,0.1c-0.3,0-0.6-0.1-0.8-0.2
		c-0.5-0.2-0.9-0.6-1.1-1.2C88.1,10.9,88,10.6,88,10.3L88,10.3z M90.4,11.4c0.2,0,0.3,0,0.5-0.1c0.1-0.1,0.3-0.1,0.4-0.2
		c0.1-0.1,0.2-0.2,0.3-0.3c0.1-0.1,0.1-0.2,0.2-0.2V8.9l-0.4,0c-0.6,0-1.1,0.1-1.4,0.3c-0.3,0.2-0.5,0.5-0.5,1
		c0,0.4,0.1,0.7,0.3,0.9C89.8,11.3,90.1,11.4,90.4,11.4L90.4,11.4z M96.3,10.5c0,0.3,0,0.6,0.1,0.7c0.1,0.1,0.3,0.2,0.5,0.2
		c0.1,0,0.2,0,0.3,0c0.1,0,0.1,0,0.2-0.1l0.1,1c-0.1,0.1-0.2,0.1-0.4,0.1c-0.2,0.1-0.5,0.1-0.7,0.1c-0.4,0-0.8-0.1-1.1-0.4
		c-0.3-0.3-0.4-0.8-0.4-1.5V0.7l1.3-0.1L96.3,10.5L96.3,10.5z M111.9,1v11.3h-1.4V7V6c0-0.3,0-0.6,0-0.9c0-0.3,0-0.5,0-0.8
		c0-0.2,0-0.4,0-0.5h-0.1c-0.1,0.3-0.2,0.7-0.3,1.2c-0.2,0.6-0.4,1.2-0.6,1.8l-1.9,5.5h-1.1l-1.9-5.5c-0.2-0.6-0.4-1.3-0.6-1.8
		c-0.2-0.6-0.3-1-0.3-1.2h-0.1c0,0.4,0,0.8,0.1,1.3c0,0.3,0,0.6,0,0.9v6.4h-1.4V1h1.6l2.7,7.8c0.1,0.4,0.2,0.7,0.3,1.1
		s0.2,0.6,0.2,0.9h0c0-0.3,0.1-0.5,0.2-0.9c0.1-0.3,0.2-0.7,0.3-1.1l2.7-7.8L111.9,1L111.9,1z M115.6,12.3h-1.3V4.5h1.3L115.6,12.3
		L115.6,12.3z M114.9,2.6c-0.3,0-0.5-0.1-0.7-0.3c-0.2-0.2-0.2-0.4-0.2-0.7c0-0.3,0.1-0.5,0.2-0.7c0.2-0.2,0.4-0.3,0.7-0.3
		c0.3,0,0.5,0.1,0.6,0.3s0.2,0.4,0.2,0.7c0,0.3-0.1,0.5-0.2,0.7C115.4,2.5,115.2,2.6,114.9,2.6L114.9,2.6z M121.9,12.3V7.3
		c0-0.7-0.1-1.1-0.3-1.4c-0.2-0.3-0.6-0.4-1-0.4c-0.4,0-0.7,0.1-1,0.3c-0.3,0.2-0.5,0.4-0.6,0.6v6.1h-1.3V4.5h1.2v0.9h0
		c0.2-0.3,0.4-0.5,0.6-0.6c0.2-0.1,0.4-0.2,0.6-0.3c0.2-0.1,0.5-0.1,0.8-0.1c0.3,0,0.7,0.1,0.9,0.2c0.3,0.1,0.5,0.3,0.7,0.5
		c0.2,0.2,0.3,0.5,0.5,0.9s0.2,0.8,0.2,1.4v5.2L121.9,12.3L121.9,12.3z M126.6,12.3h-1.3V4.5h1.3V12.3z M125.9,2.6
		c-0.3,0-0.5-0.1-0.7-0.3c-0.2-0.2-0.2-0.4-0.2-0.7c0-0.3,0.1-0.5,0.2-0.7c0.2-0.2,0.4-0.3,0.7-0.3c0.3,0,0.5,0.1,0.6,0.3
		s0.2,0.4,0.2,0.7c0,0.3-0.1,0.5-0.2,0.7C126.4,2.5,126.1,2.6,125.9,2.6L125.9,2.6z M132,6.1c-0.1-0.1-0.3-0.3-0.5-0.4
		c-0.2-0.2-0.5-0.3-0.9-0.3c-0.4,0-0.6,0.1-0.8,0.2c-0.2,0.1-0.3,0.4-0.3,0.6c0,0.3,0.1,0.5,0.3,0.7c0.2,0.2,0.4,0.4,0.8,0.6
		l0.5,0.3c0.5,0.3,1,0.7,1.3,1c0.3,0.4,0.5,0.8,0.5,1.4c0,0.6-0.2,1.1-0.6,1.6c-0.4,0.4-1.1,0.6-1.9,0.6c-0.3,0-0.6,0-0.8-0.1
		c-0.2-0.1-0.4-0.1-0.6-0.2c-0.2-0.1-0.3-0.2-0.5-0.3c-0.1-0.1-0.2-0.2-0.3-0.3l0.6-1.1c0.1,0.1,0.1,0.1,0.2,0.2
		c0.2,0.2,0.5,0.4,0.8,0.5c0.2,0.1,0.4,0.1,0.6,0.1c0.4,0,0.7-0.1,0.9-0.3c0.2-0.2,0.3-0.4,0.3-0.6c0-0.2,0-0.3-0.1-0.5
		c0-0.1-0.1-0.3-0.2-0.4c-0.1-0.1-0.2-0.2-0.4-0.3c-0.2-0.1-0.3-0.2-0.5-0.3l-0.5-0.3c-0.5-0.3-0.9-0.6-1.2-1
		c-0.3-0.3-0.4-0.8-0.4-1.3c0-0.3,0.1-0.6,0.2-0.8c0.1-0.2,0.3-0.5,0.5-0.6c0.2-0.2,0.4-0.3,0.7-0.4c0.3-0.1,0.6-0.2,0.9-0.2
		c0.3,0,0.5,0,0.8,0.1c0.4,0.1,0.7,0.3,1,0.5c0.1,0.1,0.2,0.2,0.3,0.2L132,6.1L132,6.1z M137.7,5.6H136v4.4c0,0.6,0.1,0.9,0.2,1.1
		c0.1,0.2,0.4,0.3,0.7,0.3c0.2,0,0.4,0,0.5-0.1c0.1,0,0.2-0.1,0.3-0.1l0.2,1.1c-0.1,0.1-0.3,0.1-0.4,0.2c-0.2,0.1-0.5,0.1-0.8,0.1
		c-0.7,0-1.2-0.2-1.5-0.6c-0.3-0.4-0.5-1-0.5-1.9V5.6h-1V4.7l1-0.2l0.1-2.2h1.2v2.2h1.9L137.7,5.6L137.7,5.6z M142.7,5.6
		c-0.1,0-0.1-0.1-0.2-0.1c-0.1,0-0.3-0.1-0.4-0.1c-0.4,0-0.7,0.1-1,0.3c-0.2,0.2-0.4,0.5-0.5,0.7v5.8h-1.3V4.5h1.2v1.1h0
		c0.1-0.2,0.1-0.3,0.2-0.4c0.1-0.1,0.2-0.3,0.3-0.4c0.1-0.1,0.3-0.2,0.5-0.3c0.2-0.1,0.4-0.1,0.6-0.1c0.2,0,0.3,0,0.4,0.1
		c0.1,0,0.2,0.1,0.3,0.1L142.7,5.6L142.7,5.6z M149.2,4.5l-2.5,8.3c-0.3,1-0.6,1.7-1,2.2c-0.4,0.5-1,0.7-1.8,0.7
		c-0.2,0-0.3,0-0.4-0.1c-0.1,0-0.2-0.1-0.2-0.1v-1.1c0.1,0,0.1,0,0.2,0.1c0.1,0,0.2,0,0.3,0c0.5,0,0.8-0.1,1.1-0.4
		c0.2-0.3,0.5-0.7,0.6-1.4l0.1-0.4l-2.5-7.9h1.4l1.2,4.4c0.1,0.4,0.2,0.9,0.3,1.3c0.1,0.4,0.2,0.7,0.2,1h0c0-0.3,0.1-0.6,0.2-1
		c0.1-0.4,0.2-0.8,0.3-1.2l1.1-4.4L149.2,4.5L149.2,4.5z M55,24.9c0-0.7,0.1-1.3,0.3-1.9c0.2-0.5,0.4-1,0.7-1.3
		c0.3-0.3,0.6-0.6,1-0.7c0.4-0.2,0.8-0.2,1.2-0.2c0.4,0,0.8,0.1,1.2,0.2c0.4,0.2,0.7,0.4,1,0.7c0.3,0.3,0.5,0.8,0.6,1.3
		c0.2,0.5,0.2,1.1,0.2,1.9c0,0.7-0.1,1.4-0.2,1.9c-0.2,0.5-0.4,1-0.7,1.3c-0.3,0.3-0.6,0.6-1,0.7c-0.4,0.2-0.8,0.2-1.2,0.2
		c-0.4,0-0.8-0.1-1.2-0.2c-0.4-0.2-0.7-0.4-1-0.7c-0.3-0.3-0.5-0.8-0.6-1.3C55.1,26.3,55,25.7,55,24.9L55,24.9z M59.8,24.9
		c0-1-0.2-1.8-0.5-2.3c-0.3-0.5-0.7-0.7-1.3-0.7c-0.5,0-1,0.2-1.3,0.7c-0.3,0.5-0.5,1.2-0.5,2.3s0.2,1.8,0.5,2.3
		c0.3,0.5,0.7,0.7,1.3,0.7c0.5,0,1-0.2,1.3-0.7C59.7,26.7,59.8,26,59.8,24.9z M66.1,22.1h-1.6v6.8h-1.3v-6.8h-1v-0.9l1-0.2v-1.6
		c0-0.4,0.1-0.8,0.2-1.1s0.3-0.6,0.5-0.8c0.2-0.2,0.4-0.3,0.7-0.4c0.3-0.1,0.5-0.1,0.8-0.1c0.3,0,0.5,0,0.7,0.1
		c0.2,0.1,0.3,0.1,0.4,0.2l-0.3,1.1c-0.1-0.1-0.2-0.1-0.3-0.1c-0.1-0.1-0.3-0.1-0.4-0.1c-0.3,0-0.6,0.1-0.7,0.3
		c-0.2,0.2-0.2,0.6-0.2,1.1V21h1.8L66.1,22.1L66.1,22.1z M76.3,18.7h-4v3.9H76v1.1h-3.7v4h4.4l-0.1,1.2h-5.8V17.6h5.6L76.3,18.7
		L76.3,18.7z M77.9,25.1c0-0.8,0.1-1.5,0.3-2c0.2-0.5,0.5-1,0.8-1.3c0.3-0.3,0.7-0.6,1.1-0.7c0.4-0.1,0.8-0.2,1.2-0.2
		c0.3,0,0.5,0,0.7,0.1c0.2,0,0.3,0.1,0.5,0.1v-3.8l1.3-0.1v11.7h-1.2V28h0c-0.1,0.2-0.3,0.5-0.5,0.6c-0.2,0.1-0.4,0.2-0.6,0.3
		c-0.2,0.1-0.5,0.1-0.8,0.1c-0.4,0-0.7-0.1-1.1-0.2c-0.3-0.2-0.6-0.4-0.9-0.7c-0.3-0.3-0.4-0.7-0.6-1.2C78,26.4,77.9,25.8,77.9,25.1
		L77.9,25.1z M81,27.9c0.5,0,1-0.2,1.3-0.5c0.1-0.1,0.1-0.2,0.2-0.2v-4.9c-0.1-0.1-0.3-0.1-0.4-0.2C81.9,22,81.7,22,81.5,22
		c-0.3,0-0.6,0.1-0.9,0.2c-0.3,0.1-0.5,0.3-0.7,0.5c-0.2,0.2-0.4,0.6-0.5,0.9c-0.1,0.4-0.2,0.9-0.2,1.4c0,0.5,0,1,0.1,1.4
		c0.1,0.4,0.2,0.7,0.4,0.9c0.2,0.2,0.3,0.4,0.6,0.5C80.5,27.8,80.8,27.9,81,27.9L81,27.9z M91.3,28.9h-1.2V28h0
		c0,0.1-0.1,0.2-0.2,0.3c-0.1,0.1-0.3,0.3-0.4,0.4c-0.2,0.1-0.4,0.2-0.6,0.3c-0.2,0.1-0.5,0.1-0.8,0.1c-0.3,0-0.7,0-0.9-0.2
		c-0.3-0.1-0.5-0.3-0.7-0.5c-0.2-0.2-0.3-0.5-0.4-0.9c-0.1-0.4-0.2-0.8-0.2-1.4V21h1.3v5.1c0,0.7,0.1,1.1,0.3,1.4
		c0.2,0.3,0.5,0.4,1,0.4c0.4,0,0.7-0.1,1-0.3c0.3-0.2,0.5-0.4,0.6-0.6v-6h1.3L91.3,28.9L91.3,28.9z M97.8,22.5
		c-0.1-0.1-0.1-0.1-0.2-0.1c-0.1-0.1-0.2-0.1-0.3-0.2c-0.1-0.1-0.3-0.1-0.4-0.2c-0.2-0.1-0.3-0.1-0.5-0.1c-0.3,0-0.5,0.1-0.8,0.2
		c-0.2,0.1-0.5,0.3-0.6,0.5s-0.3,0.5-0.4,0.9c-0.1,0.4-0.2,0.8-0.2,1.3c0,0.6,0,1.1,0.1,1.5c0.1,0.4,0.2,0.7,0.4,0.9
		c0.2,0.2,0.4,0.4,0.6,0.5c0.2,0.1,0.5,0.2,0.8,0.2c0.4,0,0.7-0.1,0.9-0.2c0.2-0.1,0.4-0.3,0.4-0.3l0.5,0.9
		c-0.1,0.1-0.2,0.2-0.2,0.2c-0.1,0.1-0.3,0.2-0.4,0.3c-0.2,0.1-0.4,0.2-0.6,0.2c-0.2,0.1-0.5,0.1-0.8,0.1c-0.4,0-0.8-0.1-1.2-0.2
		c-0.4-0.1-0.7-0.4-1-0.7c-0.3-0.3-0.5-0.8-0.7-1.3c-0.2-0.5-0.2-1.2-0.2-2c0-0.8,0.1-1.4,0.3-1.9c0.2-0.5,0.5-0.9,0.8-1.3
		c0.3-0.3,0.7-0.6,1.1-0.7c0.4-0.1,0.8-0.2,1.2-0.2c0.3,0,0.6,0,0.8,0.1c0.2,0.1,0.4,0.1,0.6,0.2c0.2,0.1,0.3,0.2,0.4,0.3
		s0.2,0.2,0.3,0.2L97.8,22.5L97.8,22.5z M99.2,26.9c0-0.5,0.1-0.8,0.3-1.1c0.2-0.3,0.4-0.6,0.7-0.7c0.3-0.2,0.7-0.3,1-0.4
		c0.4-0.1,0.8-0.1,1.3-0.1h0.4v-0.8c0-0.7-0.1-1.1-0.4-1.4c-0.2-0.3-0.6-0.4-1-0.4c-0.4,0-0.7,0.1-1,0.3c-0.3,0.2-0.5,0.3-0.6,0.5
		l-0.6-0.9c0.1-0.1,0.2-0.2,0.3-0.3c0.1-0.1,0.3-0.2,0.5-0.3c0.5-0.2,1-0.3,1.5-0.3c0.8,0,1.4,0.2,1.8,0.7c0.4,0.5,0.6,1.2,0.6,2.2
		v3.6c0,0.3,0,0.7,0,1c0,0.3,0,0.5,0.1,0.6h-1.3L103,28h0c0,0.1-0.1,0.2-0.2,0.3c-0.1,0.1-0.2,0.2-0.3,0.3c-0.1,0.1-0.3,0.2-0.5,0.3
		c-0.2,0.1-0.4,0.1-0.7,0.1c-0.3,0-0.6-0.1-0.8-0.2c-0.5-0.2-0.9-0.6-1.1-1.2C99.3,27.5,99.2,27.2,99.2,26.9L99.2,26.9z M101.6,27.9
		c0.2,0,0.3,0,0.5-0.1c0.1-0.1,0.3-0.1,0.4-0.2c0.1-0.1,0.2-0.2,0.3-0.3c0.1-0.1,0.1-0.2,0.2-0.2v-1.7l-0.4,0
		c-0.6,0-1.1,0.1-1.4,0.3c-0.3,0.2-0.5,0.5-0.5,1c0,0.4,0.1,0.7,0.3,0.9C101,27.8,101.3,27.9,101.6,27.9L101.6,27.9z M109.6,22.1
		h-1.7v4.4c0,0.6,0.1,0.9,0.2,1.1c0.1,0.2,0.4,0.3,0.7,0.3c0.2,0,0.4,0,0.5-0.1c0.1,0,0.2-0.1,0.3-0.1l0.2,1.1
		c-0.1,0.1-0.3,0.2-0.4,0.2c-0.2,0.1-0.5,0.1-0.8,0.1c-0.7,0-1.2-0.2-1.5-0.6c-0.3-0.4-0.5-1-0.5-1.9v-4.5h-0.9v-0.9l0.9-0.2
		l0.1-2.2h1.2V21h1.9C109.8,21,109.6,22.1,109.6,22.1z M112.4,28.9h-1.3V21h1.3V28.9z M111.8,19.1c-0.3,0-0.5-0.1-0.7-0.3
		c-0.2-0.2-0.2-0.4-0.2-0.7c0-0.3,0.1-0.5,0.2-0.7c0.2-0.2,0.4-0.3,0.7-0.3c0.3,0,0.5,0.1,0.6,0.3c0.2,0.2,0.2,0.4,0.2,0.7
		c0,0.3-0.1,0.5-0.2,0.7C112.3,19,112,19.1,111.8,19.1L111.8,19.1z M114.1,24.9c0-0.7,0.1-1.3,0.3-1.9c0.2-0.5,0.4-1,0.7-1.3
		c0.3-0.3,0.6-0.6,1-0.7c0.4-0.2,0.8-0.2,1.2-0.2c0.4,0,0.8,0.1,1.2,0.2c0.4,0.2,0.7,0.4,1,0.7c0.3,0.3,0.5,0.8,0.7,1.3
		c0.2,0.5,0.2,1.1,0.2,1.9c0,0.7-0.1,1.4-0.2,1.9c-0.2,0.5-0.4,1-0.7,1.3c-0.3,0.3-0.6,0.6-1,0.7c-0.4,0.2-0.8,0.2-1.2,0.2
		c-0.4,0-0.8-0.1-1.2-0.2c-0.4-0.2-0.7-0.4-1-0.7c-0.3-0.3-0.5-0.8-0.6-1.3C114.2,26.3,114.1,25.7,114.1,24.9L114.1,24.9z M119,24.9
		c0-1-0.2-1.8-0.5-2.3c-0.3-0.5-0.7-0.7-1.3-0.7c-0.5,0-1,0.2-1.3,0.7c-0.3,0.5-0.4,1.2-0.4,2.3s0.2,1.8,0.5,2.3
		c0.3,0.5,0.7,0.7,1.3,0.7c0.5,0,1-0.2,1.3-0.7C118.8,26.7,119,26,119,24.9L119,24.9z M126.3,28.9v-5.1c0-0.7-0.1-1.1-0.3-1.4
		s-0.6-0.4-1-0.4c-0.4,0-0.7,0.1-1,0.3c-0.3,0.2-0.5,0.4-0.6,0.6v6.1H122V21h1.2v0.9h0c0.2-0.3,0.4-0.5,0.6-0.6
		c0.2-0.1,0.4-0.2,0.6-0.3c0.2-0.1,0.5-0.1,0.8-0.1c0.3,0,0.7,0.1,0.9,0.2c0.3,0.1,0.5,0.3,0.7,0.5c0.2,0.2,0.3,0.5,0.5,0.9
		s0.2,0.8,0.2,1.4v5.2L126.3,28.9L126.3,28.9z M54.9,43.4c0-0.5,0.1-0.8,0.3-1.1s0.4-0.6,0.7-0.7c0.3-0.2,0.7-0.3,1-0.4
		c0.4-0.1,0.8-0.1,1.3-0.1h0.4v-0.8c0-0.7-0.1-1.1-0.4-1.4c-0.2-0.3-0.6-0.4-1-0.4c-0.4,0-0.7,0.1-1,0.3c-0.3,0.2-0.5,0.3-0.6,0.5
		l-0.6-0.9c0.1-0.1,0.2-0.2,0.3-0.3c0.1-0.1,0.3-0.2,0.5-0.3c0.5-0.2,1-0.3,1.5-0.3c0.8,0,1.4,0.2,1.8,0.7c0.4,0.4,0.6,1.2,0.6,2.2
		v3.6c0,0.3,0,0.7,0,1s0,0.5,0.1,0.6h-1.3l0-0.9h0c0,0.1-0.1,0.2-0.2,0.3c-0.1,0.1-0.2,0.2-0.3,0.3c-0.1,0.1-0.3,0.2-0.5,0.3
		c-0.2,0.1-0.4,0.1-0.7,0.1c-0.3,0-0.6-0.1-0.8-0.2c-0.5-0.2-0.9-0.6-1.1-1.2C54.9,44,54.9,43.7,54.9,43.4L54.9,43.4z M57.3,44.5
		c0.2,0,0.3,0,0.5-0.1c0.1-0.1,0.3-0.1,0.4-0.2c0.1-0.1,0.2-0.2,0.3-0.3c0.1-0.1,0.1-0.2,0.2-0.2V42l-0.4,0c-0.6,0-1.1,0.1-1.4,0.3
		c-0.3,0.2-0.5,0.5-0.5,1c0,0.4,0.1,0.7,0.3,0.9C56.7,44.4,56.9,44.5,57.3,44.5L57.3,44.5z M66.2,45.4v-5.1c0-0.7-0.1-1.1-0.3-1.4
		c-0.2-0.3-0.6-0.4-1-0.4c-0.4,0-0.7,0.1-1,0.3c-0.3,0.2-0.5,0.4-0.6,0.6v6.1h-1.3v-7.9h1.2v0.9h0c0-0.1,0.1-0.2,0.2-0.3
		c0.1-0.1,0.3-0.2,0.4-0.4c0.2-0.1,0.4-0.2,0.6-0.3c0.2-0.1,0.5-0.1,0.8-0.1c0.3,0,0.7,0,1,0.2c0.3,0.1,0.5,0.3,0.7,0.5
		c0.2,0.2,0.3,0.5,0.5,0.9c0.1,0.4,0.2,0.8,0.2,1.4v5.2L66.2,45.4L66.2,45.4z M69.1,41.6c0-0.8,0.1-1.5,0.3-2c0.2-0.5,0.5-1,0.8-1.3
		s0.7-0.6,1.1-0.7c0.4-0.1,0.8-0.2,1.2-0.2c0.3,0,0.5,0,0.7,0.1c0.2,0,0.3,0.1,0.5,0.1v-3.8l1.3-0.1v11.7h-1.2v-0.8h0
		c-0.1,0.2-0.3,0.5-0.5,0.6c-0.2,0.1-0.4,0.2-0.6,0.3c-0.2,0.1-0.5,0.1-0.8,0.1c-0.4,0-0.7-0.1-1.1-0.2c-0.3-0.2-0.6-0.4-0.9-0.7
		c-0.3-0.3-0.4-0.7-0.6-1.2C69.2,42.9,69.1,42.3,69.1,41.6L69.1,41.6z M72.3,44.4c0.2,0,0.4,0,0.6-0.1c0.3-0.1,0.5-0.2,0.7-0.5
		c0.1-0.1,0.1-0.2,0.2-0.2v-4.9c-0.1-0.1-0.3-0.1-0.4-0.2c-0.2-0.1-0.4-0.1-0.6-0.1c-0.3,0-0.6,0.1-0.9,0.2
		c-0.3,0.1-0.5,0.3-0.7,0.5c-0.2,0.2-0.4,0.6-0.5,0.9c-0.1,0.4-0.2,0.9-0.2,1.4c0,0.5,0,1,0.1,1.4c0.1,0.4,0.2,0.7,0.4,0.9
		c0.2,0.2,0.3,0.4,0.6,0.5C71.8,44.4,72,44.4,72.3,44.4L72.3,44.4z M86,45.4l-2.3-4.6c-0.3,0-0.5,0-0.8,0h-0.6v4.6h-1.4V34.1H83
		c1.4,0,2.4,0.3,3,0.8c0.7,0.5,1,1.3,1,2.4c0,0.8-0.2,1.4-0.5,1.9c-0.3,0.5-0.8,0.9-1.5,1.2l2.7,5L86,45.4L86,45.4z M85.4,37.3
		c0-0.7-0.2-1.3-0.6-1.6c-0.4-0.3-1-0.5-1.9-0.5h-0.7v4.4h0.6c0.9,0,1.5-0.2,1.9-0.6C85.2,38.7,85.4,38.1,85.4,37.3L85.4,37.3z
		 M93.9,40.2c0,0.3,0,0.6,0,0.9c0,0.2,0,0.4-0.1,0.6h-4c0,0.9,0.2,1.6,0.6,2c0.4,0.4,0.9,0.7,1.5,0.7c0.2,0,0.4,0,0.6-0.1
		c0.4-0.1,0.7-0.3,1-0.6l0.5,0.9c-0.1,0.1-0.1,0.1-0.2,0.2c-0.1,0.1-0.3,0.2-0.4,0.3c-0.2,0.1-0.5,0.2-0.7,0.3
		c-0.3,0.1-0.6,0.1-1,0.1c-0.5,0-0.9-0.1-1.3-0.2c-0.4-0.2-0.7-0.4-1-0.8c-0.3-0.3-0.5-0.8-0.6-1.3s-0.2-1.2-0.2-1.9
		c0-0.7,0.1-1.3,0.2-1.8c0.2-0.5,0.4-0.9,0.6-1.3c0.3-0.3,0.6-0.6,0.9-0.7c0.4-0.2,0.8-0.2,1.2-0.2c0.8,0,1.3,0.2,1.8,0.7
		C93.7,38.5,93.9,39.3,93.9,40.2L93.9,40.2z M91.4,38.4c-0.5,0-0.8,0.2-1.1,0.6c-0.3,0.4-0.4,1-0.5,1.7h2.9c0-0.1,0-0.1,0-0.2
		c0-0.1,0-0.2,0-0.3c0-0.5-0.1-1-0.3-1.3C92.2,38.6,91.8,38.4,91.4,38.4L91.4,38.4z M99.1,39.1c-0.1-0.1-0.3-0.3-0.5-0.4
		c-0.2-0.2-0.5-0.3-0.9-0.3c-0.3,0-0.6,0.1-0.8,0.2c-0.2,0.1-0.3,0.4-0.3,0.6c0,0.3,0.1,0.5,0.3,0.7c0.2,0.2,0.4,0.4,0.8,0.6
		l0.5,0.3c0.5,0.3,1,0.7,1.3,1s0.5,0.8,0.5,1.4c0,0.6-0.2,1.1-0.6,1.6c-0.4,0.4-1.1,0.6-1.9,0.6c-0.3,0-0.6,0-0.8-0.1
		c-0.2-0.1-0.4-0.1-0.6-0.2c-0.2-0.1-0.3-0.2-0.5-0.3c-0.1-0.1-0.2-0.2-0.3-0.3l0.6-1c0.1,0.1,0.1,0.1,0.2,0.2
		c0.2,0.2,0.5,0.4,0.8,0.5c0.2,0.1,0.4,0.1,0.6,0.1c0.4,0,0.7-0.1,0.9-0.3c0.2-0.2,0.3-0.4,0.3-0.6c0-0.2,0-0.3-0.1-0.5
		c0-0.1-0.1-0.3-0.2-0.4c-0.1-0.1-0.2-0.2-0.4-0.3c-0.2-0.1-0.3-0.2-0.5-0.3l-0.5-0.3c-0.5-0.3-0.9-0.7-1.2-1
		c-0.3-0.3-0.4-0.8-0.4-1.3c0-0.3,0.1-0.6,0.2-0.8c0.1-0.2,0.3-0.5,0.5-0.6c0.2-0.2,0.4-0.3,0.7-0.4c0.3-0.1,0.6-0.2,0.9-0.2
		c0.3,0,0.5,0,0.8,0.1c0.4,0.1,0.7,0.3,1,0.5c0.1,0.1,0.2,0.2,0.3,0.2L99.1,39.1L99.1,39.1z M106.5,40.2c0,0.3,0,0.6,0,0.9
		c0,0.2,0,0.4-0.1,0.6h-4c0,0.9,0.2,1.6,0.6,2c0.4,0.4,0.9,0.7,1.5,0.7c0.2,0,0.4,0,0.6-0.1c0.4-0.1,0.7-0.3,1-0.6l0.5,0.9
		c-0.1,0.1-0.1,0.1-0.2,0.2c-0.1,0.1-0.3,0.2-0.4,0.3c-0.2,0.1-0.4,0.2-0.7,0.3c-0.3,0.1-0.6,0.1-1,0.1c-0.5,0-0.9-0.1-1.3-0.2
		c-0.4-0.2-0.7-0.4-1-0.8c-0.3-0.3-0.5-0.8-0.6-1.3s-0.2-1.2-0.2-1.9c0-0.7,0.1-1.3,0.2-1.8c0.2-0.5,0.4-0.9,0.6-1.3
		s0.6-0.6,0.9-0.7c0.4-0.2,0.8-0.2,1.2-0.2c0.8,0,1.3,0.2,1.8,0.7C106.3,38.5,106.5,39.3,106.5,40.2L106.5,40.2z M104,38.4
		c-0.5,0-0.8,0.2-1.1,0.6c-0.3,0.4-0.4,1-0.5,1.7h2.9c0-0.1,0-0.1,0-0.2c0-0.1,0-0.2,0-0.3c0-0.5-0.1-1-0.3-1.3
		C104.7,38.6,104.4,38.4,104,38.4L104,38.4z M107.8,43.4c0-0.5,0.1-0.8,0.3-1.1s0.4-0.6,0.7-0.7c0.3-0.2,0.7-0.3,1-0.4
		c0.4-0.1,0.8-0.1,1.3-0.1h0.4v-0.8c0-0.7-0.1-1.1-0.4-1.4c-0.2-0.3-0.6-0.4-1-0.4c-0.4,0-0.7,0.1-1,0.3c-0.3,0.2-0.5,0.3-0.6,0.5
		l-0.6-0.9c0.1-0.1,0.2-0.2,0.3-0.3c0.1-0.1,0.3-0.2,0.5-0.3c0.5-0.2,1-0.3,1.5-0.3c0.8,0,1.4,0.2,1.8,0.7c0.4,0.4,0.6,1.2,0.6,2.2
		v3.6c0,0.3,0,0.7,0,1c0,0.3,0,0.5,0.1,0.6h-1.3l-0.1-0.9h0c0,0.1-0.1,0.2-0.2,0.3c-0.1,0.1-0.2,0.2-0.3,0.3
		c-0.1,0.1-0.3,0.2-0.5,0.3c-0.2,0.1-0.4,0.1-0.7,0.1c-0.3,0-0.6-0.1-0.8-0.2c-0.5-0.2-0.9-0.6-1.1-1.2
		C107.8,44,107.8,43.7,107.8,43.4L107.8,43.4z M110.2,44.5c0.2,0,0.3,0,0.5-0.1s0.3-0.1,0.4-0.2c0.1-0.1,0.2-0.2,0.3-0.3
		c0.1-0.1,0.1-0.2,0.2-0.2V42l-0.4,0c-0.6,0-1.1,0.1-1.4,0.3c-0.3,0.2-0.5,0.5-0.5,1c0,0.4,0.1,0.7,0.3,0.9
		C109.6,44.4,109.8,44.5,110.2,44.5z M118.3,38.7c-0.1,0-0.1-0.1-0.2-0.1c-0.1,0-0.3-0.1-0.4,0c-0.4,0-0.7,0.1-1,0.3
		c-0.2,0.2-0.4,0.5-0.5,0.7v5.8h-1.3v-7.9h1.2v1.1h0c0.1-0.2,0.1-0.3,0.2-0.5c0.1-0.1,0.2-0.3,0.3-0.4c0.1-0.1,0.3-0.2,0.5-0.3
		c0.2-0.1,0.4-0.1,0.6-0.1c0.2,0,0.3,0,0.4,0c0.1,0,0.2,0.1,0.3,0.1L118.3,38.7L118.3,38.7z M123.7,39.1c-0.1,0-0.1-0.1-0.2-0.1
		c-0.1-0.1-0.2-0.1-0.3-0.2c-0.1-0.1-0.3-0.1-0.4-0.2c-0.2-0.1-0.3-0.1-0.5-0.1c-0.3,0-0.6,0.1-0.8,0.2c-0.2,0.1-0.5,0.3-0.6,0.5
		s-0.3,0.5-0.4,0.9c-0.1,0.4-0.2,0.8-0.2,1.3c0,0.6,0,1.1,0.1,1.5c0.1,0.4,0.2,0.7,0.4,0.9s0.4,0.4,0.6,0.5c0.2,0.1,0.5,0.2,0.8,0.2
		c0.4,0,0.7-0.1,0.9-0.2c0.2-0.1,0.4-0.3,0.4-0.3l0.5,0.9c-0.1,0.1-0.2,0.2-0.2,0.2c-0.1,0.1-0.3,0.2-0.4,0.3
		c-0.2,0.1-0.4,0.2-0.6,0.2c-0.2,0.1-0.5,0.1-0.8,0.1c-0.4,0-0.8-0.1-1.2-0.2c-0.4-0.1-0.7-0.4-1-0.7c-0.3-0.3-0.5-0.8-0.7-1.3
		c-0.2-0.5-0.2-1.2-0.2-2c0-0.8,0.1-1.4,0.3-1.9c0.2-0.5,0.5-0.9,0.8-1.3c0.3-0.3,0.7-0.6,1.1-0.7c0.4-0.1,0.8-0.2,1.2-0.2
		c0.3,0,0.6,0,0.8,0.1c0.2,0.1,0.4,0.1,0.6,0.2c0.2,0.1,0.3,0.2,0.4,0.3c0.1,0.1,0.2,0.2,0.3,0.2L123.7,39.1L123.7,39.1z M130,45.4
		v-5.1c0-0.7-0.1-1.1-0.3-1.4c-0.2-0.3-0.6-0.4-1-0.4c-0.4,0-0.7,0.1-1,0.3c-0.3,0.2-0.5,0.4-0.6,0.6v6.1h-1.3V33.8l1.3-0.1v4.7h0
		c0-0.1,0.1-0.2,0.2-0.3c0.1-0.1,0.2-0.2,0.4-0.3c0.4-0.3,0.9-0.4,1.4-0.4c0.7,0,1.2,0.2,1.6,0.7c0.4,0.4,0.6,1.2,0.6,2.2v5.2
		L130,45.4L130,45.4z M19.4,11.4c0-0.3,0.1-0.6,0.1-0.9c0-0.2,0-0.4,0-0.6c2.7,0,5.2-2,5.2-4.3c0-1.2-0.8-2-1.2-2.6
		c0.1,0,0.2,0,0.3-0.1c0.4,0.3,1.5,1.6,1.5,3.2C25.3,8.8,22.5,11.4,19.4,11.4 M16.7,1.9c0-0.3-0.2-0.6-0.3-0.8
		c0-0.3,0.1-0.5,0.6-0.3c-0.2,0.2-0.1,0.7-0.1,0.7s0.5-0.2,0.4-0.6C18,1.1,17.4,2.1,16.7,1.9 M16,3.3c-0.1-0.4-0.3-0.8-0.6-1.1
		c-0.2-0.3-0.6-0.6-1.2-0.6c-0.2,0-0.7,0.1-0.9,0.2c-0.1-0.2-0.3-0.6-0.3-0.8c0-0.2,0.3-0.4,1-0.4c1.4,0,2.3,0.6,2.3,1.7
		C16.3,2.7,16.2,3,16,3.3 M19.7,21.7c0.1,0,0.2,0,0.3,0.1c0.4,1.1,2,3.2,2.1,3.3l0,0l0,0c0.4-0.1,1.4-0.2,2.2-0.2h0
		c0.1,0,0.2,0,0.3,0.1c0.1,0.1,0.1,0.1,0.1,0.3c0,0.2-0.1,0.6-0.2,0.7c-0.3-0.3-0.8-0.5-1.5-0.5c-0.2,0-0.5,0.1-0.6,0.1l-0.1,0
		l-0.1,0l0.4,0.4c0.7,0.7,1.2,1.2,1.2,1.6c0,0.2-0.2,0.5-0.4,0.7c0-0.7-0.8-1.6-1.5-2.2l-0.1,0l0,0.2c0,0.2,0,0.4,0,0.7
		c0,1.3-0.1,1.5-0.6,1.5c-0.1,0-0.2,0-0.3,0c0.3-0.3,0.4-0.8,0.4-1.5l0-0.3l0-0.3c0-0.3,0-0.5,0.1-0.7l0-0.1l-0.1,0
		c-0.3,0-0.6-0.1-0.9-0.1c-0.7,0-1.1,0.1-1.4,0.4c-0.2-0.2-0.4-0.5-0.4-0.7c0-0.3,0.2-0.3,0.4-0.3c0.1,0,0.2,0,0.4,0
		c0.3,0,0.7,0.1,1.6,0.1H21l0-0.1c-0.2-0.6-0.8-1.6-1.8-2.8C19.3,21.9,19.4,21.7,19.7,21.7 M11.2,25L11.2,25L11.2,25
		c0.9,0.1,1.3,0,1.6-0.1c0.1,0,0.3,0,0.4,0c0.2,0,0.4,0,0.4,0.3c0,0.2-0.2,0.5-0.4,0.7c-0.3-0.3-0.8-0.4-1.4-0.4
		c-0.3,0-0.7,0.1-0.9,0.1l0,0l0,0l0,0.1c0,0.2,0.1,0.4,0.1,0.7l0,0.3l0,0.3c0,0.8,0.1,1.2,0.4,1.5c-0.1,0-0.2,0-0.3,0
		c-0.5,0-0.6-0.2-0.6-1.5c0-0.3,0-0.5,0-0.7l0-0.3l-0.1,0c-0.7,0.5-1.4,1.5-1.4,2.2c-0.2-0.1-0.4-0.4-0.4-0.7c0-0.4,0.6-1,1.2-1.6
		l0.4-0.4l0.1,0l-0.1,0c-0.2-0.1-0.4-0.1-0.6-0.1c-0.8,0-1.2,0.1-1.5,0.5c-0.1-0.1-0.2-0.5-0.2-0.7c0-0.1,0-0.2,0.1-0.3
		c0.1-0.1,0.2-0.1,0.3-0.1h0c0.8,0,1.8,0.1,2.2,0.2l0,0l0,0c0.1-0.1,1.6-2.2,2.1-3.3c0.1,0,0.2-0.1,0.3-0.1c0.3,0,0.4,0.2,0.5,0.5
		C12,23.4,11.4,24.3,11.2,25 M6.9,6.1c0-1.6,1.1-2.8,1.5-3.2C8.5,3,8.6,3,8.7,3C8.3,3.5,7.6,4.4,7.6,5.6c0,2.3,2.5,4.3,5.2,4.3
		c0,0.2,0,0.4,0,0.6c0,0.3,0,0.7,0.1,0.9C9.7,11.4,6.9,8.9,6.9,6.1 M28,10.9c1.4,2.2,2.5,2.2,4.2,2.2c-1.4-1.1-2.3-2.4-2.7-3.1
		l-2.6-4.1C26.6,4.6,26,3.5,25,2.6c0.3-0.1,0.6-0.3,0.8-0.4c-1.7,0-3.4-0.9-4.3-0.9c-0.6,0-1,0.4-1,0.8c0,0.5,0.6,1,1.6,1
		c0.2,0,0.5,0,0.8-0.1c0.5,0.7,1,1.4,1,2.4c0,1.8-2.2,3.2-4.3,3.2c-0.1,0-0.2,0-0.4,0c-0.2-0.4-0.9-1.2-0.9-2.1c0-1.4,0.9-2.6,0.9-4
		c0-0.9-0.4-1.4-0.6-1.7c0.3-0.2,0.6-0.6,0.6-0.8c-0.2,0.1-0.3,0.1-0.6,0.1c-1,0-1.9-0.3-2.7-0.3c-0.5,0-0.6,0.1-0.6,0.3
		c0,0.1,0,0.1,0,0.1c-0.2-0.1-0.4-0.1-0.5-0.2c-0.3,0-0.5-0.1-0.8-0.1c-1,0-1.4,0.4-1.4,0.8c0,0.3,0.2,0.9,0.5,1.3
		c0.4-0.2,0.9-0.3,1.1-0.3c0.5,0,1,0.5,1.3,1.1c-0.4,0-0.4,0.1-0.8,0.1c-1,0-1.6-0.4-1.8-0.4c0,0,0,0,0,0c0,0.1,0.3,0.5,0.8,0.7
		c0.7,0.3,1.8,0.4,2,0.4c0,0-0.2,0.4-0.4,0.4c0,0-0.1,0-0.1,0c-0.8-0.2-1-0.2-1.9-0.6c0,0,0,0,0,0c0,0.4,1,1.2,1.9,1.5
		c-0.7,0.9-1.7,1.9-2.1,3.4c-0.1,0-0.2,0-0.4,0c-2.2,0-4.3-1.4-4.3-3.2c0-1,0.4-1.6,1-2.4c0.3,0,0.6,0.1,0.8,0.1c1,0,1.5-0.5,1.6-1
		c0-0.5-0.4-0.8-1-0.8c-0.9,0-2.6,0.9-4.3,0.9c0.2,0.1,0.4,0.3,0.8,0.4c-1,0.9-1.6,2.1-1.9,3.4L2.7,10c-0.4,0.7-1.4,2-2.7,3.1
		c1.7,0,2.8,0,4.2-2.2l1.3-2.1c0.1,0.3,0.2,0.5,0.4,0.8l-2.6,4.2c-0.4,0.7-1.3,2-2.7,3.1c1.7,0,2.8,0,4.2-2.2L7,11.1
		c0.2,0.2,0.3,0.4,0.5,0.5l-3.2,5.1c-0.4,0.7-1.3,2-2.7,3.1c1.7,0,2.8,0,4.2-2.2l3.1-5c0.2,0.1,0.4,0.3,0.6,0.4l-3.8,6.1
		c-0.4,0.7-1.3,2-2.7,3.1c1.7,0,2.8,0,4.2-2.2l3.9-6.3c0.2,0.1,0.5,0.2,0.7,0.3l-4.4,7.1c-0.4,0.7-1.4,2-2.7,3.1
		c1.7,0,2.8,0,4.2-2.2l4.7-7.5c0,0,0.1,0,0.1,0c0.1,0.4,0.2,0.8,0.2,1.2c0,2.4-1.6,4.5-3.4,6.1c0.1,0.1,0.3,0.1,0.5,0.1
		c0.4,0,0.6,0,0.8,0c-0.4,1-1.4,2.3-1.8,2.9c-0.6-0.1-1.5-0.2-2.1-0.2c-0.6,0-0.7,0.4-0.7,0.7c0,0.6,0.3,1,0.6,1.2
		c0.1-0.3,0.3-0.7,1.5-0.7c0,0,0.1,0,0.1,0C9,26.1,8,26.9,8,27.6c0,0.4,0.5,1.1,1.1,1.1c0-0.1,0-0.3,0-0.4c0-0.5,0.5-1.2,0.9-1.6
		c0,0.1,0,0.1,0,0.3c0,1.3,0.1,1.9,0.9,1.9c0.4,0,0.7-0.2,0.8-0.3c-0.5-0.5-0.6-0.9-0.6-1.6c0-0.2,0-0.4,0-0.6c0-0.2,0-0.4,0-0.5
		c0.3,0,0.4,0,0.6,0c0,0,1.2-0.1,1.4,0.5c0.3-0.3,0.8-0.7,0.8-1.1c0-0.3-0.1-0.6-0.7-0.6c-0.2,0-0.9,0.1-1.5,0.1
		c0.2-0.4,0.9-1.4,1.5-2.1c0.1,0.3,0.2,0.6,0.6,0.9c0-0.5,0.3-2,1.1-2.9c0.1,0.6,0.2,1.2,0.2,2.5c0,3.2-0.8,5.5-2.4,6
		c0.2,0.4,0.7,0.7,1.1,0.7c0.6,0,0.9-0.7,1.3-1.3c0.2,0.5,0.6,1.6,1.1,1.6c0.5,0,1-1.1,1.1-1.6c0.3,0.6,0.7,1.3,1.3,1.3
		c0.5,0,0.9-0.3,1.1-0.7c-1.6-0.5-2.4-2.8-2.4-6c0-1.3,0.1-1.9,0.2-2.5c0.8,0.9,1,2.4,1.1,2.9c0.3-0.3,0.5-0.6,0.6-0.9
		c0.6,0.8,1.3,1.8,1.5,2.1c-0.6,0-1.3-0.1-1.5-0.1c-0.6,0-0.7,0.3-0.7,0.6c0,0.4,0.5,0.9,0.8,1.1c0.3-0.6,1.4-0.5,1.4-0.5
		c0.2,0,0.3,0,0.6,0c0,0.2,0,0.4,0,0.5l0,0.6c0,0.7,0,1.1-0.6,1.6c0.1,0.1,0.4,0.3,0.8,0.3c0.8,0,0.9-0.6,0.9-1.9c0-0.2,0-0.1,0-0.3
		c0.4,0.4,0.9,1.1,0.9,1.6c0,0.1,0,0.2,0,0.4c0.6,0,1.1-0.7,1.1-1.1c0-0.7-1-1.5-1.4-1.9l0.1,0c1.1,0,1.4,0.4,1.5,0.7
		c0.4-0.3,0.6-0.8,0.6-1.2c0-0.3-0.1-0.7-0.7-0.7c-0.6,0-1.5,0.1-2.1,0.2c-0.5-0.7-1.4-1.9-1.8-2.9c0.2,0,0.4,0.1,0.8,0.1
		c0.2,0,0.4,0,0.5-0.1c-1.9-1.6-3.4-3.7-3.4-6.1c0-0.4,0.1-0.8,0.2-1.2c0,0,0.1,0,0.1,0l4.7,7.5c1.4,2.2,2.5,2.2,4.2,2.2
		c-1.4-1-2.3-2.4-2.7-3.1L20.4,14c0.2-0.1,0.5-0.2,0.7-0.3l3.9,6.3c1.4,2.2,2.5,2.2,4.2,2.2c-1.4-1.1-2.3-2.4-2.7-3.1l-3.8-6.1
		c0.2-0.1,0.4-0.2,0.6-0.4l3.1,5c1.4,2.2,2.5,2.2,4.2,2.2c-1.4-1.1-2.3-2.4-2.7-3.1l-3.2-5.1c0.2-0.2,0.4-0.3,0.5-0.5l2.3,3.6
		c1.4,2.2,2.5,2.2,4.2,2.2c-1.4-1.1-2.3-2.4-2.7-3.1l-2.6-4.2c0.1-0.3,0.3-0.5,0.4-0.8L28,10.9z M45.4,28.9h-4.8V1.3h4.8V28.9z"/>
	<path class="st0" d="M45.4,56.4h-4.8V28.9h4.8V56.4z"/>
	<path class="st1" d="M45.4,84h-4.8V56.4h4.8V84z"/>
</g>
</svg>
