<?xml version="1.0" encoding="utf-8"?>
<!-- Generator: Adobe Illustrator 16.0.3, SVG Export Plug-In . SVG Version: 6.00 Build 0)  -->
<!DOCTYPE svg PUBLIC "-//W3C//DTD SVG 1.1//EN" "http://www.w3.org/Graphics/SVG/1.1/DTD/svg11.dtd">
<svg version="1.1" id="Ebene_1" xmlns="http://www.w3.org/2000/svg" xmlns:xlink="http://www.w3.org/1999/xlink" x="0px" y="0px"
	 width="251.428px" height="109px" viewBox="-31.313 -8.265 251.428 109" enable-background="new -31.313 -8.265 251.428 109"
	 xml:space="preserve">
<title>HG_Bilder</title>
<g id="_x37_82e572b-4f55-434b-969d-e311d9983935">
	<g>
		<defs>
			<rect id="SVGID_1_" x="-48.89" y="429.809" width="1599" height="1051.002"/>
		</defs>
		<clipPath id="SVGID_2_">
			<use xlink:href="#SVGID_1_"  overflow="visible"/>
		</clipPath>
		<g clip-path="url(#SVGID_2_)">
		</g>
	</g>
</g>
<g id="_x35_d696a75-ecca-42bb-93b4-ca77811fc017">
	<polygon fill="#FFCB00" points="28.333,56.788 29.965,56.788 29.965,79.035 26.16,79.035 26.16,56.788 	"/>
	<polygon fill="#FF0000" points="28.333,34.429 29.965,34.429 29.965,56.788 26.16,56.788 26.16,34.429 	"/>
	<g>
		<path fill="#1E1E1E" d="M9.488,20.461c0.016-0.257,0.016-0.516,0-0.774c0-0.141,0-0.312,0-0.502c2.173,0,4.07-1.628,4.07-3.467
			c-0.064-0.778-0.395-1.507-0.934-2.06l0.227-0.05c0.734,0.649,1.184,1.572,1.248,2.563C14.098,18.371,11.946,20.421,9.488,20.461
			 M7.295,12.793c-0.038-0.241-0.132-0.468-0.274-0.663c0-0.221,0.098-0.442,0.452-0.262c-0.188,0.201,0,0.553,0,0.553
			s0.393-0.181,0.314-0.453c0.581,0.141,0.167,0.945-0.442,0.814 M6.843,13.919c-0.081-0.339-0.235-0.655-0.452-0.924
			c-0.224-0.299-0.565-0.483-0.934-0.502c-0.25,0.02-0.496,0.08-0.727,0.181c-0.112-0.203-0.188-0.424-0.227-0.653
			c0-0.161,0.266-0.322,0.777-0.322c1.121,0,1.79,0.522,1.79,1.386C7.052,13.376,6.975,13.66,6.843,13.919 M9.674,28.711
			c0.088-0.019,0.179-0.019,0.266,0c0.453,0.94,0.996,1.832,1.622,2.663l0,0l0,0c0.575-0.1,1.156-0.157,1.74-0.171l0,0
			c0.073-0.011,0.147,0.007,0.207,0.05c0.048,0.067,0.069,0.149,0.059,0.231c-0.004,0.2-0.054,0.396-0.147,0.573
			c-0.328-0.29-0.759-0.425-1.189-0.372c-0.17,0.007-0.338,0.034-0.501,0.081h-0.099l0.345,0.352
			c0.531,0.542,0.983,1.005,0.983,1.316c-0.034,0.223-0.158,0.421-0.345,0.543c-0.175-0.658-0.563-1.235-1.101-1.638l0,0v0.201
			c0,0.14,0,0.341,0,0.552c0,1.086-0.107,1.246-0.471,1.246c-0.065,0.01-0.132,0.01-0.197,0c0.232-0.357,0.334-0.789,0.285-1.215
			v-0.502c-0.014-0.194-0.014-0.389,0-0.583v-0.081h-0.059c-0.245-0.04-0.491-0.063-0.737-0.071
			c-0.404-0.056-0.814,0.052-1.141,0.302c-0.173-0.13-0.295-0.319-0.345-0.533c0-0.221,0.138-0.241,0.315-0.241h0.295
			c0.417,0.062,0.837,0.088,1.258,0.08l0,0l0,0c-0.366-0.815-0.854-1.568-1.445-2.231c0.068-0.261,0.137-0.422,0.383-0.422
			 M2.99,31.334L2.99,31.334L2.99,31.334c0.418,0.035,0.84,0.035,1.258,0h0.295c0.177,0,0.315,0,0.315,0.241
			c-0.049,0.213-0.171,0.402-0.345,0.532c-0.324-0.247-0.729-0.355-1.13-0.302c-0.247,0.007-0.494,0.031-0.737,0.071H2.597v0.081
			c0.014,0.194,0.014,0.389,0,0.583v0.502c-0.05,0.427,0.051,0.857,0.285,1.216c-0.065,0.01-0.132,0.01-0.197,0
			c-0.364,0-0.473-0.161-0.473-1.247c0-0.221,0-0.422,0-0.552v-0.201l0,0c-0.603,0.43-1.027,1.076-1.189,1.809
			c-0.185-0.122-0.311-0.319-0.344-0.542c0-0.312,0.452-0.774,0.983-1.317l0.343-0.312l0,0H1.908
			c-0.163-0.046-0.332-0.073-0.501-0.081c-0.43-0.053-0.862,0.082-1.189,0.372c-0.114-0.195-0.176-0.417-0.178-0.643
			c0.006-0.081,0.041-0.156,0.099-0.211c0.06-0.043,0.134-0.062,0.207-0.05l0,0c0.583,0.014,1.165,0.071,1.74,0.171l0,0l0,0
			c0.626-0.83,1.169-1.722,1.622-2.664c0.087-0.018,0.178-0.018,0.265,0c0.246,0,0.315,0.171,0.384,0.422
			C3.801,29.848,3.341,30.562,2.99,31.334 M-0.403,16.17c0.061-0.982,0.499-1.9,1.219-2.552l0.207,0.05
			c-0.539,0.553-0.869,1.283-0.934,2.06c0,1.849,1.966,3.467,4.139,3.467c0,0.161,0,0.322,0,0.493c-0.014,0.258-0.014,0.516,0,0.774
			c-2.486,0-4.669-2.081-4.669-4.291 M16.251,20.079c0.586,1.282,1.938,2.006,3.303,1.769c-0.854-0.7-1.583-1.547-2.153-2.502
			l-2.035-3.336c-0.2-1.042-0.724-1.99-1.494-2.703c0.215-0.077,0.42-0.182,0.609-0.312c-1.328,0-2.645-0.693-3.373-0.693
			c-0.371-0.05-0.711,0.217-0.761,0.597c-0.003,0.022-0.004,0.044-0.005,0.066c0,0.422,0.452,0.845,1.229,0.845
			c0.218-0.006,0.435-0.03,0.649-0.07c0.459,0.533,0.729,1.209,0.766,1.919c0,1.478-1.7,2.613-3.42,2.613H9.281
			c-0.349-0.492-0.581-1.059-0.679-1.658c0-1.156,0.737-2.101,0.737-3.256c0.004-0.488-0.156-0.963-0.452-1.346
			c0.203-0.169,0.37-0.377,0.491-0.613c-0.157,0.054-0.325,0.074-0.491,0.06c-0.826,0-1.494-0.221-2.152-0.221
			c-0.374,0-0.473,0.121-0.473,0.231c-0.006,0.034-0.006,0.067,0,0.101c-0.136-0.054-0.278-0.095-0.422-0.121
			c-0.205-0.039-0.412-0.06-0.619-0.061c-0.797,0-1.082,0.342-1.082,0.634c0.061,0.361,0.198,0.704,0.403,1.005
			c0.266-0.145,0.557-0.236,0.855-0.272c0.422,0,0.796,0.412,0.983,0.895c-0.209,0.017-0.419,0.017-0.629,0
			c-0.484-0.02-0.961-0.115-1.416-0.281l0,0c0,0,0.216,0.402,0.659,0.563c0.514,0.158,1.04,0.266,1.573,0.321
			c-0.058,0.15-0.167,0.274-0.305,0.352H6.165c-0.522-0.059-1.037-0.177-1.534-0.352l0,0c0,0.301,0.776,1.005,1.465,1.236
			c-0.743,0.798-1.316,1.747-1.681,2.784H4.13c-1.721,0-3.421-1.135-3.421-2.593c0.033-0.712,0.299-1.392,0.757-1.929
			c0.214,0.041,0.431,0.064,0.649,0.07c0.776,0,1.199-0.432,1.229-0.844c-0.013-0.383-0.327-0.682-0.702-0.668
			c-0.022,0.001-0.043,0.002-0.065,0.005c-0.728,0-2.044,0.693-3.372,0.693c0.189,0.13,0.394,0.235,0.61,0.312
			c-0.764,0.712-1.285,1.656-1.485,2.693l-2.034,3.336c-0.57,0.956-1.299,1.803-2.153,2.502c1.365,0.237,2.717-0.487,3.303-1.769
			l1.042-1.708c0.079,0.225,0.175,0.443,0.285,0.653l-2.074,3.387c-0.57,0.956-1.299,1.803-2.153,2.502
			c1.365,0.237,2.717-0.486,3.303-1.769l1.779-2.914c0.139,0.14,0.276,0.292,0.422,0.422l-2.516,4.12
			c-0.565,0.971-1.294,1.832-2.153,2.543c1.375,0.231,2.73-0.512,3.304-1.809l2.458-4.02l0.501,0.301l-2.998,4.904
			c-0.568,0.957-1.297,1.804-2.152,2.502c1.364,0.237,2.716-0.487,3.303-1.769L2.882,22.4l0.56,0.201l-3.5,5.718
			c-0.57,0.955-1.299,1.802-2.153,2.502c1.373,0.232,2.727-0.506,3.304-1.799l3.716-6.09h0.107c0.103,0.304,0.159,0.623,0.167,0.944
			c0,1.909-1.229,3.598-2.704,4.904c0.134,0.045,0.274,0.066,0.413,0.061c0.213,0.019,0.427,0.019,0.639,0
			c-0.408,0.815-0.884,1.592-1.426,2.321c-0.542-0.096-1.09-0.15-1.642-0.161c-0.482,0-0.531,0.292-0.531,0.543
			c-0.008,0.386,0.156,0.754,0.443,1.005c0.088-0.231,0.265-0.533,1.16-0.533h0.079c-0.255,0.291-1.071,1.005-1.071,1.508
			c0.05,0.479,0.425,0.854,0.895,0.895c-0.013-0.101-0.013-0.202,0-0.303c0.078-0.497,0.313-0.956,0.668-1.306
			c-0.004,0.074-0.004,0.148,0,0.222c0,1.004,0.088,1.517,0.737,1.517c0.216,0.002,0.427-0.068,0.6-0.201
			c-0.354-0.321-0.521-0.808-0.442-1.286c0-0.151,0-0.301,0-0.502c0.012-0.143,0.012-0.288,0-0.432c0.167-0.015,0.335-0.015,0.501,0
			c0,0,0.915-0.071,1.131,0.412c0.246-0.232,0.61-0.563,0.61-0.924c0-0.362-0.108-0.513-0.58-0.513
			c-0.177,0-0.737,0.111-1.209,0.111c0.339-0.614,0.73-1.195,1.17-1.739c0.072,0.276,0.227,0.521,0.441,0.704
			c0.083-0.846,0.377-1.656,0.855-2.352c0.113,0.664,0.169,1.336,0.167,2.01c0,2.572-0.609,4.472-1.887,4.834
			c0.184,0.328,0.516,0.538,0.885,0.563c0.472,0,0.728-0.543,0.983-1.055c0.137,0.381,0.511,1.306,0.885,1.306
			c0.374,0,0.747-0.925,0.884-1.306c0.266,0.512,0.521,1.055,0.983,1.055c0.369-0.024,0.701-0.234,0.885-0.563
			c-1.288-0.362-1.887-2.262-1.887-4.834c-0.002-0.673,0.054-1.346,0.167-2.01c0.478,0.696,0.773,1.505,0.855,2.352
			c0.214-0.183,0.369-0.428,0.441-0.704c0.439,0.544,0.831,1.125,1.17,1.739c-0.472,0-0.983-0.111-1.209-0.111
			c-0.472,0-0.58,0.271-0.58,0.513c0,0.241,0.364,0.692,0.61,0.924c0.216-0.483,1.131-0.412,1.131-0.412
			c0.167-0.016,0.334-0.016,0.501,0c-0.011,0.144-0.011,0.289,0,0.432c0,0.201,0,0.352,0,0.502c0.077,0.48-0.094,0.967-0.452,1.286
			c0.172,0.146,0.387,0.229,0.609,0.232c0.639,0,0.737-0.474,0.737-1.519c0.005-0.074,0.005-0.147,0-0.221
			c0.366,0.346,0.612,0.805,0.698,1.306c0.013,0.101,0.013,0.201,0,0.302c0.469-0.04,0.845-0.415,0.895-0.894
			c0-0.543-0.816-1.216-1.071-1.507h0.088c0.884,0,1.071,0.301,1.16,0.533c0.286-0.251,0.448-0.62,0.442-1.005
			c0-0.251-0.049-0.542-0.531-0.542c-0.55,0.011-1.099,0.064-1.642,0.16c-0.549-0.738-1.033-1.525-1.445-2.351
			c0.212,0.019,0.426,0.019,0.638,0c0.141,0.005,0.281-0.015,0.413-0.061c-1.475-1.306-2.704-3.015-2.704-4.904
			c0.012-0.322,0.071-0.641,0.178-0.944h0.107l3.716,6.09c0.586,1.281,1.938,2.006,3.304,1.768
			c-0.866-0.688-1.608-1.524-2.193-2.472l-3.49-5.748l0.561-0.201l3.086,5.024c0.587,1.282,1.938,2.006,3.304,1.769
			c-0.856-0.698-1.585-1.545-2.153-2.502l-3.008-4.874l0.501-0.301l2.458,4.02c0.573,1.297,1.929,2.04,3.303,1.809
			c-0.854-0.699-1.583-1.546-2.152-2.502l-2.517-4.12c0.148-0.141,0.285-0.281,0.423-0.422l1.789,2.924
			c0.586,1.282,1.938,2.006,3.303,1.769c-0.855-0.699-1.584-1.546-2.153-2.502l-2.083-3.446c0.11-0.21,0.205-0.429,0.285-0.654
			L16.251,20.079z"/>
		<polygon fill="#1E1E1E" points="29.965,12.301 29.965,34.549 28.333,34.549 26.16,34.549 26.16,12.301 		"/>
		<polygon fill="#1E1E1E" points="41.86,12.974 39.068,12.974 39.068,16.079 41.702,16.079 41.702,16.934 39.068,16.934 
			39.068,21.194 38.026,21.194 38.026,12.11 41.86,12.11 		"/>
		<path fill="#1E1E1E" d="M45.901,17.486c0.017-0.436-0.026-0.872-0.128-1.296c-0.093-0.47-0.517-0.793-0.983-0.753
			c-0.656,0-1.036,0.412-1.141,1.236c-0.016,0.271-0.016,0.543,0,0.813H45.901z M46.884,18.169h-3.244v0.433
			c-0.025,0.472,0.031,0.945,0.167,1.396c0.165,0.399,0.56,0.647,0.983,0.613c0.714,0,1.087-0.466,1.12-1.397h0.983
			c0.091,1.056-0.673,1.987-1.706,2.08c-0.139,0.013-0.279,0.009-0.418-0.01C44.06,21.363,43.37,21.015,43,20.39
			c-0.275-0.669-0.397-1.395-0.354-2.12c-0.044-0.816,0.06-1.634,0.306-2.412c0.318-0.765,1.087-1.229,1.897-1.146
			c0.739-0.086,1.45,0.317,1.769,1.005c0.222,0.693,0.316,1.422,0.276,2.15L46.884,18.169z"/>
		<path fill="#1E1E1E" d="M51.523,18.089c0.025-0.615-0.037-1.231-0.186-1.829c0-0.555-0.441-1.005-0.983-1.005
			c-0.543,0-0.983,0.45-0.983,1.005c-0.141,0.558-0.201,1.133-0.178,1.708c-0.025,0.613,0.042,1.226,0.197,1.818
			c0.098,0.446,0.478,0.768,0.925,0.784c0.492,0.042,0.939-0.299,1.042-0.794c0.141-0.55,0.201-1.12,0.177-1.688 M52.516,21.194
			h-0.983v-0.724c-0.305,0.522-0.86,0.838-1.455,0.824c-0.722,0.048-1.388-0.399-1.632-1.095c-0.207-0.734-0.287-1.499-0.236-2.261
			c-0.036-0.746,0.078-1.491,0.334-2.19c0.254-0.646,0.885-1.051,1.564-1.005c0.565-0.033,1.105,0.251,1.405,0.743V12.11h0.983
			v7.898c0,0.228,0,0.626,0,1.196"/>
		<path fill="#1E1E1E" d="M57.313,17.486c0.018-0.436-0.025-0.872-0.128-1.296c-0.093-0.47-0.516-0.793-0.983-0.753
			c-0.655,0-1.035,0.412-1.14,1.236c-0.015,0.271-0.015,0.543,0,0.813H57.313z M58.296,18.169h-3.205v0.433
			c-0.025,0.472,0.032,0.945,0.167,1.396c0.164,0.399,0.561,0.647,0.983,0.613c0.714,0,1.088-0.466,1.121-1.397h0.983
			c0.094,1.055-0.667,1.99-1.7,2.085c-0.153,0.015-0.31,0.009-0.462-0.016c-0.709,0.079-1.4-0.27-1.77-0.895
			c-0.276-0.669-0.397-1.395-0.354-2.12c-0.044-0.816,0.059-1.634,0.304-2.412c0.32-0.765,1.088-1.229,1.898-1.146
			c0.739-0.086,1.451,0.317,1.769,1.005c0.222,0.693,0.315,1.422,0.276,2.15L58.296,18.169z"/>
		<path fill="#1E1E1E" d="M62.426,15.698h-0.207c-0.399-0.031-0.789,0.133-1.051,0.442c-0.24,0.323-0.365,0.72-0.354,1.125v3.919
			H59.83v-5.165c0-0.422,0-0.813,0-1.156h0.983v0.834c0.277-0.629,0.899-1.026,1.573-1.005c0.066,0,0.099,0.335,0.099,1.005"/>
		<path fill="#1E1E1E" d="M66.26,18.752v-0.764h-0.246c-1.311,0-1.966,0.453-1.966,1.357s0.305,1.31,0.914,1.216
			c0.413,0.005,0.794-0.228,0.983-0.603c0.184-0.377,0.272-0.795,0.255-1.216 M67.183,21.194H66.2V20.37
			c-0.36,0.582-0.987,0.935-1.661,0.935c-0.464,0.029-0.914-0.165-1.219-0.523c-0.271-0.389-0.406-0.859-0.383-1.336
			c-0.082-0.755,0.313-1.48,0.983-1.809c0.746-0.289,1.542-0.415,2.339-0.372v-0.241c0.019-0.363-0.025-0.727-0.127-1.075
			c-0.138-0.339-0.479-0.544-0.836-0.502c-0.267-0.01-0.529,0.08-0.737,0.251c-0.2,0.174-0.309,0.435-0.294,0.704v0.06h-0.983v-0.06
			c-0.023-0.522,0.228-1.017,0.659-1.296c0.425-0.274,0.924-0.407,1.426-0.382c0.542-0.054,1.078,0.141,1.465,0.533
			c0.304,0.468,0.443,1.028,0.393,1.588v2.331c0,0.764,0.021,1.434,0.06,2.01"/>
		<polygon fill="#1E1E1E" points="70.005,21.194 69.032,21.194 69.032,12.11 69.513,12.11 70.005,12.11 		"/>
		<polygon fill="#1E1E1E" points="82.667,21.194 81.643,21.194 81.643,12.904 79.354,21.194 78.193,21.194 75.902,12.904 
			75.902,21.194 74.96,21.194 74.96,12.11 76.68,12.11 78.813,20.119 80.946,12.11 82.667,12.11 		"/>
		<path fill="#1E1E1E" d="M85.626,21.194h-0.983v-6.331h0.983V21.194z M85.626,13.316h-1.043v-1.075h1.071L85.626,13.316z"/>
		<path fill="#1E1E1E" d="M91.612,21.194H90.63v-4.02c0.019-0.375-0.018-0.751-0.107-1.116c-0.125-0.36-0.473-0.588-0.846-0.552
			c-0.422-0.005-0.806,0.243-0.982,0.633c-0.2,0.398-0.298,0.84-0.286,1.287v3.768h-0.983V16.26c0-0.563-0.016-1.025-0.05-1.387
			h0.983v0.864c0.29-0.637,0.925-1.034,1.612-1.005c1.089,0,1.632,0.67,1.632,2.01L91.612,21.194z"/>
		<path fill="#1E1E1E" d="M94.414,21.194H93.43v-6.331h0.983V21.194z M94.414,13.316H93.43v-1.075h1.071L94.414,13.316z"/>
		<path fill="#1E1E1E" d="M99.684,19.466c0,1.233-0.657,1.85-1.966,1.85c-1.312,0-1.934-0.67-1.868-2.01h0.982
			c0,0.13,0,0.241,0,0.351c0.06,0.67,0.363,1.005,0.914,1.005c0.453,0.092,0.893-0.208,0.983-0.67c0.021-0.11,0.021-0.224,0-0.334
			c0.019-0.308-0.089-0.609-0.296-0.834c-0.25-0.221-0.526-0.407-0.826-0.553c-0.394-0.193-0.766-0.429-1.109-0.704
			c-0.316-0.299-0.489-0.725-0.473-1.165c-0.028-0.479,0.169-0.942,0.532-1.247c0.38-0.285,0.845-0.427,1.317-0.402
			c0.497-0.051,0.994,0.117,1.365,0.462c0.305,0.405,0.459,0.907,0.434,1.417h-0.983c0-0.791-0.292-1.186-0.875-1.186
			c-0.225-0.009-0.441,0.078-0.6,0.241c-0.151,0.174-0.229,0.401-0.217,0.633c-0.002,0.288,0.129,0.559,0.354,0.733
			c0.272,0.214,0.566,0.399,0.876,0.553c0.372,0.188,0.72,0.424,1.032,0.704c0.296,0.323,0.455,0.752,0.442,1.196"/>
		<path fill="#1E1E1E" d="M103.548,21.194c-0.236,0.012-0.473,0.012-0.709,0c-0.413,0.05-0.827-0.081-1.141-0.362
			c-0.203-0.362-0.293-0.78-0.255-1.196v-4.04h-0.924v-0.734h0.924v-1.165l0.982-0.443v1.608h1.112v0.724h-1.112v4.02
			c-0.024,0.248,0.025,0.498,0.148,0.713c0.149,0.139,0.35,0.205,0.551,0.18l0.441-0.05L103.548,21.194z"/>
		<path fill="#1E1E1E" d="M107.342,15.698h-0.206c-0.399-0.031-0.789,0.133-1.052,0.442c-0.24,0.323-0.365,0.72-0.355,1.125v3.919
			h-0.982v-5.165c0-0.422,0-0.813,0-1.156h0.982v0.834c0.278-0.629,0.898-1.026,1.574-1.005c0.065,0,0.099,0.335,0.099,1.005"/>
		<polygon fill="#1E1E1E" points="112.443,14.863 109.957,23.596 109.013,23.596 109.73,21.194 107.873,14.863 108.914,14.863 
			110.221,19.938 111.481,14.863 		"/>
		<path fill="#1E1E1E" d="M40.926,32.017v-1.005c0.02-0.503-0.023-1.006-0.127-1.497c-0.111-0.459-0.521-0.778-0.983-0.764
			c-0.5-0.028-0.947,0.315-1.062,0.814c-0.111,0.48-0.158,0.974-0.137,1.467v0.904c-0.021,0.44,0.029,0.882,0.147,1.306
			c0.147,0.419,0.547,0.689,0.983,0.664c0.43,0.028,0.828-0.232,0.983-0.644c0.132-0.418,0.189-0.857,0.167-1.296 M41.88,31.284
			c0.056,0.836-0.076,1.675-0.384,2.452c-0.382,0.624-1.082,0.969-1.799,0.884c-0.717,0.093-1.422-0.254-1.799-0.884
			c-0.281-0.752-0.398-1.559-0.344-2.362c-0.048-0.806,0.08-1.612,0.374-2.362c0.359-0.687,1.09-1.084,1.848-1.005
			c0.72-0.091,1.422,0.27,1.78,0.915c0.291,0.767,0.418,1.59,0.374,2.412"/>
		<path fill="#1E1E1E" d="M45.901,26.199h-0.384c-0.255-0.029-0.502,0.107-0.619,0.342c-0.078,0.246-0.111,0.505-0.098,0.764v0.915
			h1.062v0.724h-1.052v5.607h-0.983v-5.607h-0.914v-0.724h0.914v-0.703c-0.034-0.502,0.05-1.005,0.246-1.467
			c0.28-0.464,0.798-0.719,1.328-0.654h0.492L45.901,26.199z"/>
		<polygon fill="#1E1E1E" points="54.502,26.33 52.448,26.33 52.448,34.539 51.396,34.539 51.396,26.33 49.351,26.33 49.351,25.455 
			54.502,25.455 		"/>
		<path fill="#1E1E1E" d="M57.294,29.042h-0.206c-0.399-0.03-0.789,0.133-1.052,0.442c-0.248,0.334-0.374,0.747-0.354,1.166v3.919
			h-0.983v-5.246c0-0.422,0-0.814,0-1.156h0.983v0.834c0.278-0.629,0.898-1.025,1.573-1.005c0.065,0,0.098,0.335,0.098,1.005"/>
		<path fill="#1E1E1E" d="M61.128,32.097v-0.763h-0.246c-1.312,0-1.966,0.452-1.966,1.356S59.22,34,59.83,33.907
			c0.413,0.005,0.793-0.229,0.983-0.604c0.184-0.376,0.272-0.795,0.255-1.216 M62.052,34.539h-0.983v-0.833
			c-0.36,0.583-0.987,0.935-1.661,0.935c-0.464,0.028-0.915-0.164-1.219-0.523c-0.272-0.388-0.407-0.859-0.384-1.336
			c-0.081-0.755,0.313-1.48,0.983-1.809c0.704-0.255,1.448-0.368,2.192-0.332v-0.312c0.056-0.333,0.059-0.672,0.01-1.005
			c-0.137-0.339-0.478-0.544-0.835-0.502c-0.268-0.01-0.529,0.079-0.737,0.251c-0.201,0.175-0.31,0.435-0.295,0.704v0.06H58.14
			v-0.06c-0.033-0.514,0.204-1.006,0.619-1.296c0.425-0.274,0.922-0.407,1.425-0.382c0.546-0.063,1.092,0.129,1.484,0.522
			c0.304,0.468,0.443,1.028,0.393,1.587v2.342c0,0.763,0.021,1.434,0.06,2.009"/>
		<path fill="#1E1E1E" d="M68.049,34.539h-0.983V30.52c0.019-0.375-0.018-0.751-0.108-1.116c-0.128-0.358-0.475-0.584-0.846-0.552
			c-0.42-0.005-0.805,0.243-0.983,0.633c-0.198,0.397-0.296,0.84-0.285,1.286v3.81h-0.904v-4.985c0-0.563-0.016-1.025-0.049-1.387
			h0.983v0.864c0.29-0.637,0.925-1.034,1.612-1.005c1.089,0,1.632,0.67,1.632,2.01L68.049,34.539z"/>
		<path fill="#1E1E1E" d="M73.308,32.811c0,1.234-0.656,1.85-1.966,1.85c-1.311,0-1.934-0.67-1.869-2.01h0.983
			c0,0.13,0,0.241,0,0.352c0.06,0.67,0.364,1.005,0.915,1.005c0.453,0.092,0.892-0.208,0.983-0.67c0.021-0.111,0.021-0.225,0-0.335
			c0.019-0.308-0.089-0.61-0.296-0.834c-0.25-0.221-0.526-0.407-0.825-0.552c-0.394-0.193-0.766-0.43-1.111-0.704
			c-0.316-0.299-0.489-0.725-0.472-1.166c-0.028-0.478,0.169-0.941,0.531-1.246c0.38-0.286,0.846-0.427,1.317-0.402
			c0.5-0.051,0.994,0.117,1.365,0.462c0.306,0.405,0.459,0.907,0.434,1.417h-0.982c0-0.791-0.292-1.186-0.876-1.186
			c-0.224-0.009-0.442,0.079-0.6,0.242c-0.15,0.173-0.229,0.401-0.217,0.633c-0.001,0.288,0.13,0.56,0.354,0.733
			c0.272,0.215,0.566,0.399,0.875,0.553c0.373,0.187,0.72,0.423,1.033,0.703c0.295,0.323,0.455,0.753,0.441,1.196"/>
		<path fill="#1E1E1E" d="M78.056,31.253c0.021-0.54-0.028-1.081-0.147-1.608c-0.09-0.479-0.505-0.823-0.983-0.814
			c-0.47,0.014-0.871,0.347-0.982,0.814c-0.161,0.585-0.232,1.192-0.208,1.799c-0.022,0.554,0.027,1.108,0.148,1.648
			c0.121,0.498,0.57,0.839,1.071,0.814c0.499,0,0.825-0.335,0.983-1.005c0.102-0.556,0.146-1.123,0.128-1.688 M79.05,31.213
			c0.036,0.768-0.056,1.536-0.276,2.271c-0.234,0.7-0.9,1.149-1.621,1.096c-0.559,0.028-1.094-0.238-1.417-0.704v3.015h-0.982
			v-7.215c0.026-0.489,0.026-0.979,0-1.467h0.982v0.754c0.308-0.569,0.899-0.915,1.534-0.895c0.682-0.056,1.317,0.354,1.563,1.005
			c0.215,0.702,0.309,1.436,0.276,2.171"/>
		<path fill="#1E1E1E" d="M83.7,32.017v-1.005c0.024-0.488-0.008-0.977-0.1-1.457c-0.109-0.459-0.521-0.778-0.983-0.764
			c-0.499-0.027-0.946,0.315-1.062,0.814c-0.111,0.48-0.158,0.974-0.137,1.467v0.904c-0.021,0.44,0.029,0.882,0.148,1.306
			c0.146,0.419,0.547,0.689,0.982,0.664c0.431,0.029,0.828-0.232,0.983-0.644c0.132-0.418,0.188-0.857,0.167-1.296 M84.682,31.324
			c0.057,0.836-0.076,1.674-0.384,2.452c-0.382,0.625-1.083,0.969-1.799,0.885c-0.718,0.092-1.423-0.254-1.799-0.885
			c-0.282-0.752-0.399-1.559-0.344-2.361c-0.048-0.806,0.078-1.613,0.372-2.362c0.359-0.688,1.091-1.084,1.85-1.005
			c0.72-0.092,1.423,0.27,1.779,0.915c0.274,0.757,0.392,1.565,0.344,2.372"/>
		<path fill="#1E1E1E" d="M88.871,29.042h-0.208c-0.399-0.03-0.789,0.133-1.052,0.442c-0.248,0.334-0.373,0.747-0.354,1.166v3.919
			h-0.983v-5.246c0-0.422,0-0.814,0-1.156h0.983v0.834c0.278-0.629,0.898-1.025,1.572-1.005c0.065,0,0.099,0.335,0.099,1.005"/>
		<path fill="#1E1E1E" d="M92.448,34.539c-0.234,0.013-0.471,0.013-0.707,0c-0.413,0.052-0.827-0.08-1.141-0.36
			c-0.205-0.362-0.294-0.78-0.255-1.196v-4.04H89.4v-0.724h0.924v-1.176l0.983-0.442v1.608h1.141v0.724h-1.15v4.02
			c-0.025,0.248,0.026,0.498,0.147,0.713c0.15,0.14,0.35,0.207,0.552,0.181l0.441-0.05L92.448,34.539z"/>
		<path fill="#1E1E1E" d="M99.438,32.097v-0.763h-0.246c-1.311,0-1.966,0.452-1.966,1.356S97.53,34,98.14,33.907
			c0.413,0.005,0.793-0.229,0.983-0.604c0.182-0.376,0.271-0.795,0.255-1.216 M100.362,34.539h-0.983v-0.833
			c-0.36,0.583-0.986,0.935-1.66,0.935c-0.465,0.028-0.914-0.164-1.22-0.523c-0.272-0.388-0.407-0.859-0.384-1.336
			c-0.081-0.755,0.313-1.48,0.983-1.809c0.702-0.255,1.447-0.368,2.192-0.332v-0.312c0.065-0.331,0.078-0.67,0.038-1.005
			c-0.137-0.339-0.478-0.544-0.835-0.502c-0.267-0.01-0.528,0.079-0.737,0.251c-0.2,0.175-0.31,0.435-0.294,0.704v0.06h-0.983v-0.06
			c-0.032-0.514,0.204-1.006,0.619-1.296c0.426-0.274,0.923-0.407,1.426-0.382c0.546-0.063,1.091,0.129,1.484,0.522
			c0.304,0.468,0.443,1.028,0.392,1.587v2.342c0,0.763,0.021,1.434,0.06,2.009"/>
		<path fill="#1E1E1E" d="M106.358,34.539h-0.983V30.52c0.02-0.375-0.017-0.751-0.107-1.116c-0.124-0.36-0.472-0.588-0.845-0.552
			c-0.422-0.005-0.807,0.243-0.982,0.633c-0.2,0.397-0.298,0.84-0.286,1.286v3.81h-0.983v-4.985c0-0.563-0.016-1.025-0.05-1.387
			h0.983v0.864c0.289-0.637,0.925-1.034,1.612-1.005c1.089,0,1.632,0.67,1.632,2.01L106.358,34.539z"/>
		<path fill="#1E1E1E" d="M111.273,31.444c0.027-0.622-0.036-1.246-0.186-1.849c0-0.555-0.44-1.005-0.983-1.005
			s-0.983,0.45-0.983,1.005c-0.136,0.552-0.191,1.12-0.167,1.688c-0.024,0.613,0.041,1.226,0.196,1.818
			c0.098,0.446,0.478,0.768,0.925,0.784c0.492,0.041,0.939-0.299,1.041-0.794c0.143-0.55,0.202-1.12,0.177-1.688 M112.276,34.509
			h-0.983v-0.724c-0.304,0.522-0.86,0.838-1.453,0.824c-0.725,0.067-1.402-0.363-1.663-1.055c-0.223-0.731-0.318-1.496-0.284-2.261
			c-0.036-0.746,0.077-1.491,0.334-2.19c0.254-0.646,0.886-1.051,1.563-1.005c0.566-0.033,1.105,0.252,1.405,0.744v-3.387h0.982
			v7.889c0,0.228,0,0.626,0,1.195"/>
		<path fill="#1E1E1E" d="M42.105,43.302c0.011-0.591-0.009-1.181-0.059-1.769c-0.008-0.591-0.25-1.151-0.669-1.559
			c-0.362-0.246-0.794-0.362-1.229-0.331h-1.081v7.386h1.219c0.371,0.014,0.736-0.097,1.042-0.311
			c0.42-0.418,0.664-0.989,0.679-1.588c0.062-0.611,0.088-1.225,0.079-1.839 M43.177,43.192c0.012,0.708-0.021,1.416-0.098,2.12
			c-0.044,0.699-0.314,1.364-0.767,1.889c-0.596,0.512-1.367,0.761-2.143,0.694h-2.143v-9.044h2.173
			c0.693-0.039,1.381,0.147,1.966,0.532c0.428,0.338,0.721,0.824,0.826,1.366c0.138,0.826,0.194,1.665,0.167,2.502"/>
		<path fill="#1E1E1E" d="M45.891,47.895h-0.983v-6.332h0.983V47.895z M45.94,40.017h-1.071v-1.086h1.071V40.017z"/>
		<path fill="#1E1E1E" d="M50.806,44.518c0.023-0.534-0.033-1.07-0.167-1.588c-0.147-0.563-0.714-0.896-1.264-0.745
			c-0.392,0.106-0.686,0.438-0.752,0.847c-0.119,0.573-0.169,1.161-0.146,1.747c-0.022,0.524,0.027,1.048,0.146,1.558
			c0.104,0.468,0.515,0.795,0.983,0.783c0.549,0.014,1.023-0.391,1.111-0.944c0.112-0.544,0.158-1.101,0.138-1.657 M51.838,41.503
			c0,0.091,0,0.261,0,0.492s0,0.423,0,0.563v5.547c0.054,0.612-0.137,1.223-0.531,1.688c-0.473,0.391-1.075,0.579-1.681,0.524
			c-1.312,0-1.966-0.614-1.966-1.839h1.032c0,0.77,0.327,1.154,0.983,1.154c0.408,0.045,0.801-0.177,0.983-0.552
			c0.135-0.387,0.192-0.797,0.167-1.207V47.02c-0.323,0.482-0.864,0.763-1.436,0.743c-0.684,0.052-1.324-0.353-1.583-1.005
			c-0.22-0.646-0.316-1.326-0.285-2.01c-0.038-0.776,0.065-1.552,0.306-2.29c0.229-0.66,0.849-1.095,1.533-1.076
			c0.624-0.037,1.209,0.312,1.485,0.885v-0.743L51.838,41.503z"/>
		<path fill="#1E1E1E" d="M54.572,47.895h-0.983v-6.332h0.983V47.895z M54.572,40.017h-1.022v-1.086h1.071L54.572,40.017z"/>
		<path fill="#1E1E1E" d="M58.799,47.895c-0.236,0.012-0.473,0.012-0.709,0c-0.413,0.049-0.827-0.082-1.139-0.363
			c-0.195-0.339-0.287-0.731-0.266-1.124v-4.12h-0.923v-0.725h0.923v-1.185l0.983-0.442v1.607h1.111v0.724h-1.12v4.019
			c-0.026,0.249,0.026,0.498,0.146,0.715c0.15,0.139,0.351,0.204,0.551,0.18l0.443-0.051V47.895z"/>
		<path fill="#1E1E1E" d="M62.838,45.403v-0.754h-0.246c-1.311,0-1.966,0.452-1.966,1.356s0.305,1.309,0.915,1.217
			c0.413,0.004,0.793-0.23,0.983-0.604C62.728,46.247,62.836,45.829,62.838,45.403 M63.821,47.854h-0.865V47.02
			c-0.36,0.583-0.987,0.934-1.661,0.934c-0.482,0.062-0.963-0.123-1.288-0.492c-0.271-0.389-0.406-0.859-0.383-1.337
			c-0.082-0.754,0.313-1.479,0.983-1.808c0.703-0.255,1.447-0.367,2.191-0.331v-0.281c0.019-0.364-0.025-0.729-0.127-1.075
			c-0.137-0.34-0.478-0.544-0.835-0.503c-0.268-0.01-0.529,0.08-0.737,0.251c-0.2,0.175-0.309,0.436-0.294,0.703v0.061h-0.983v-0.05
			c-0.033-0.514,0.204-1.006,0.62-1.296c0.436-0.295,0.952-0.44,1.475-0.413c0.546-0.063,1.091,0.13,1.484,0.522
			c0.304,0.468,0.444,1.028,0.394,1.588v2.342c0,0.764,0.019,1.433,0.059,2.01"/>
		<polygon fill="#1E1E1E" points="66.574,47.895 65.601,47.895 65.601,38.8 66.083,38.8 66.574,38.8 		"/>
		<polygon fill="#1E1E1E" points="72.571,47.895 71.529,47.895 71.529,38.8 72.049,38.8 72.571,38.8 		"/>
		<path fill="#1E1E1E" d="M78.684,47.895h-0.982v-4.02c0.021-0.376-0.016-0.752-0.107-1.116c-0.125-0.359-0.473-0.588-0.846-0.552
			c-0.42-0.005-0.806,0.243-0.982,0.633c-0.2,0.397-0.298,0.839-0.286,1.286v3.808h-0.983V42.94c0-0.563-0.016-1.024-0.048-1.387
			h0.983v0.835c0.288-0.639,0.925-1.035,1.61-1.006c1.095,0,1.642,0.67,1.642,2.011V47.895z"/>
		<path fill="#1E1E1E" d="M82.931,39.543H82.55c-0.257-0.028-0.503,0.108-0.62,0.342c-0.079,0.246-0.111,0.506-0.098,0.764v0.914
			h1.062v0.725h-1.052v5.607h-0.983v-5.607h-0.895v-0.725h0.914v-0.692c-0.043-0.512,0.038-1.025,0.236-1.498
			c0.28-0.463,0.798-0.718,1.326-0.653h0.491V39.543z"/>
		<path fill="#1E1E1E" d="M86.737,42.388H86.55c-0.399-0.031-0.789,0.133-1.051,0.441c-0.25,0.334-0.374,0.747-0.355,1.166v3.919
			h-0.982v-5.205c0-0.422,0-0.814,0-1.156h0.982v0.835c0.279-0.63,0.899-1.026,1.573-1.006c0.066,0,0.1,0.336,0.1,1.006"/>
		<path fill="#1E1E1E" d="M90.57,45.403v-0.754h-0.246c-1.31,0-1.966,0.452-1.966,1.356s0.305,1.309,0.916,1.217
			c0.412,0.004,0.793-0.23,0.982-0.604C90.461,46.247,90.568,45.829,90.57,45.403 M91.552,47.854H90.57V47.02
			c-0.359,0.583-0.987,0.934-1.661,0.934c-0.463,0.029-0.914-0.163-1.219-0.521c-0.271-0.389-0.405-0.86-0.383-1.337
			c-0.082-0.755,0.313-1.479,0.983-1.808c0.702-0.255,1.445-0.369,2.19-0.332v-0.282c0.056-0.342,0.056-0.691,0-1.034
			c-0.136-0.34-0.478-0.544-0.835-0.503c-0.267-0.01-0.528,0.08-0.737,0.252c-0.199,0.174-0.31,0.435-0.294,0.703v0.06h-0.983v-0.06
			c-0.032-0.514,0.204-1.006,0.619-1.296c0.414-0.279,0.9-0.423,1.396-0.413c0.547-0.063,1.093,0.13,1.484,0.522
			c0.305,0.468,0.443,1.028,0.394,1.588v2.342c0,0.764,0.02,1.433,0.06,2.01"/>
		<path fill="#1E1E1E" d="M96.763,46.156c0,1.232-0.654,1.85-1.966,1.85s-1.934-0.67-1.868-2.01h0.983c0,0.129,0,0.241,0,0.351
			c0.06,0.67,0.364,1.005,0.914,1.005c0.453,0.093,0.893-0.208,0.982-0.669c0.023-0.112,0.023-0.226,0-0.336
			c0.02-0.308-0.086-0.608-0.294-0.834c-0.249-0.22-0.527-0.406-0.825-0.552c-0.394-0.194-0.766-0.43-1.111-0.704
			c-0.317-0.299-0.488-0.725-0.473-1.165c-0.027-0.478,0.169-0.941,0.531-1.246c0.381-0.286,0.846-0.427,1.317-0.401
			c0.499-0.051,0.997,0.116,1.367,0.461c0.304,0.405,0.457,0.908,0.433,1.417h-0.983c0-0.79-0.292-1.186-0.876-1.186
			c-0.225-0.01-0.441,0.079-0.599,0.241c-0.151,0.174-0.229,0.4-0.217,0.634c-0.002,0.287,0.13,0.559,0.354,0.732
			c0.271,0.215,0.564,0.4,0.874,0.554c0.372,0.187,0.72,0.424,1.033,0.703c0.298,0.322,0.455,0.753,0.441,1.195"/>
		<path fill="#1E1E1E" d="M100.627,47.895c-0.236,0.012-0.472,0.012-0.706,0c-0.415,0.049-0.83-0.082-1.141-0.363
			c-0.206-0.361-0.296-0.779-0.256-1.195v-4.049h-0.925v-0.725h0.925v-1.185l0.983-0.442v1.607h1.109v0.724h-1.109v4.019
			c-0.027,0.249,0.024,0.498,0.146,0.715c0.15,0.139,0.352,0.204,0.552,0.18l0.441-0.051L100.627,47.895z"/>
		<path fill="#1E1E1E" d="M104.432,42.388h-0.188c-0.399-0.031-0.789,0.133-1.05,0.441c-0.25,0.334-0.375,0.747-0.355,1.166v3.919
			h-0.982v-5.205c0-0.422,0-0.814,0-1.156h0.982v0.835c0.278-0.63,0.898-1.026,1.572-1.006c0.067,0,0.101,0.336,0.101,1.006"/>
		<path fill="#1E1E1E" d="M109.799,47.895h-0.982V47.09c-0.319,0.571-0.92,0.919-1.563,0.905c-1.107,0-1.66-0.65-1.66-1.949v-4.493
			h0.982v4.02c-0.017,0.373,0.027,0.746,0.127,1.105c0.137,0.359,0.491,0.583,0.866,0.544c0.812,0,1.219-0.616,1.219-1.851v-3.818
			h0.983v4.944c0,0.497,0,0.962,0,1.397"/>
		<path fill="#1E1E1E" d="M115.392,45.915c0,1.399-0.655,2.101-1.967,2.101c-0.71,0.086-1.405-0.26-1.777-0.886
			c-0.28-0.733-0.397-1.522-0.344-2.31c-0.048-0.793,0.056-1.588,0.304-2.342c0.322-0.747,1.084-1.191,1.877-1.096
			c0.55-0.055,1.095,0.128,1.506,0.503c0.307,0.451,0.451,0.999,0.401,1.548h-0.983c0-0.892-0.326-1.337-0.983-1.337
			c-0.485-0.007-0.904,0.353-0.982,0.844c-0.113,0.576-0.159,1.163-0.137,1.749c-0.04,0.677,0.029,1.355,0.206,2.009
			c0.128,0.383,0.491,0.63,0.885,0.604c0.326,0.033,0.644-0.128,0.816-0.412c0.142-0.316,0.205-0.659,0.186-1.005L115.392,45.915z"
			/>
		<path fill="#1E1E1E" d="M119.157,47.895c-0.234,0.012-0.47,0.012-0.706,0c-0.413,0.049-0.828-0.082-1.141-0.363
			c-0.202-0.337-0.302-0.729-0.286-1.124v-4.12H116.1v-0.725h0.924v-1.185l0.983-0.442v1.607h1.111v0.724h-1.111v4.019
			c-0.025,0.249,0.026,0.498,0.147,0.715c0.149,0.139,0.35,0.204,0.551,0.18l0.441-0.051L119.157,47.895z"/>
		<path fill="#1E1E1E" d="M124.576,47.895h-0.983V47.09c-0.32,0.571-0.92,0.919-1.564,0.905c-1.106,0-1.661-0.65-1.661-1.949v-4.493
			h0.983v4.02c-0.016,0.373,0.026,0.746,0.128,1.105c0.135,0.359,0.49,0.583,0.864,0.544c0.814,0,1.22-0.616,1.22-1.851v-3.818
			h0.982v4.944c0,0.497,0,0.962,0,1.397"/>
		<path fill="#1E1E1E" d="M128.94,42.388h-0.208c-0.399-0.031-0.789,0.133-1.052,0.441c-0.248,0.334-0.373,0.747-0.354,1.166v3.919
			h-0.983v-5.205c0-0.422,0-0.814,0-1.156h0.983v0.835c0.278-0.63,0.898-1.026,1.572-1.006c0.065,0,0.101,0.336,0.101,1.006"/>
		<path fill="#1E1E1E" d="M132.979,44.187c0.018-0.438-0.024-0.873-0.126-1.297c-0.095-0.47-0.517-0.794-0.983-0.754
			c-0.656,0-1.037,0.412-1.141,1.236c-0.016,0.271-0.016,0.542,0,0.814H132.979z M133.963,44.87h-3.243v0.433
			c-0.026,0.471,0.031,0.944,0.167,1.396c0.163,0.4,0.559,0.647,0.983,0.614c0.714,0,1.087-0.467,1.119-1.397h0.983
			c0.109,1.054-0.638,2-1.669,2.112c-0.134,0.014-0.271,0.014-0.405-0.002c-0.71,0.078-1.399-0.271-1.77-0.896
			c-0.28-0.677-0.401-1.415-0.354-2.149c-0.044-0.816,0.06-1.634,0.306-2.412c0.297-0.758,1.038-1.236,1.837-1.186
			c0.739-0.086,1.452,0.318,1.771,1.006c0.221,0.692,0.314,1.423,0.274,2.15V44.87z"/>
	</g>
</g>
</svg>
