<?xml version="1.0" encoding="utf-8"?>
<!-- Generator: Adobe Illustrator 19.2.1, SVG Export Plug-In . SVG Version: 6.00 Build 0)  -->
<svg version="1.1" id="Ebene_2" xmlns="http://www.w3.org/2000/svg" xmlns:xlink="http://www.w3.org/1999/xlink" x="0px" y="0px"
	 viewBox="0 0 311.2 123.5" style="enable-background:new 0 0 311.2 123.5;" xml:space="preserve">
<style type="text/css">
	.st0{fill:#FFFFFF;}
	.st1{fill:#FF9900;}
	.st2{fill:#F8991D;}
</style>
<rect x="0" y="0" class="st0" width="311.2" height="123.5"/>
<g>
	<rect x="40.2" y="19.9" class="st1" width="20" height="83.7"/>
	<polygon class="st1" points="77.5,19.9 115.4,68 115.4,19.9 	"/>
	<polygon class="st1" points="80.3,55.5 80.3,103.6 118.2,103.6 	"/>
</g>
<g>
	<path d="M135.5,103.6V92.3h3.7c1.6,0,2.1,0.5,2.5,1.2c0.4,0.6,0.5,1.3,0.5,1.5c0,1.4-0.5,2.3-1.9,2.7v0.1c1.6,0.2,2.3,1.2,2.3,2.7
		c0,2.9-2.1,3.2-3.4,3.2H135.5z M136.9,97.1h2.1c1.1,0,1.7-0.7,1.7-1.8c0-0.9-0.5-1.7-1.7-1.7h-2V97.1z M136.9,102.4h2
		c1.5,0,2.1-1.1,2.1-1.9c0-1.8-1.1-2.1-2.6-2.1h-1.5V102.4z"/>
	<path d="M146.2,103.6h-1.3V92.3h2.3l2.8,9.5h0l2.9-9.5h2.4v11.3h-1.4v-10h0l-3.2,10h-1.4l-3.1-10h0V103.6z"/>
	<path d="M158,103.6V92.3h3.7c1.6,0,2.1,0.5,2.5,1.2c0.4,0.6,0.5,1.3,0.5,1.5c0,1.4-0.5,2.3-1.9,2.7v0.1c1.6,0.2,2.3,1.2,2.3,2.7
		c0,2.9-2.1,3.2-3.4,3.2H158z M159.5,97.1h2.1c1.1,0,1.7-0.7,1.7-1.8c0-0.9-0.5-1.7-1.7-1.7h-2V97.1z M159.5,102.4h2
		c1.5,0,2.1-1.1,2.1-1.9c0-1.8-1.1-2.1-2.6-2.1h-1.5V102.4z"/>
	<path d="M167.3,103.6V92.3h5.6v1.3h-4.2v3.6h3.9v1.3h-3.9v5.2H167.3z"/>
</g>
<path d="M170.4,19.4c-8.5,0-15.1,6.1-15.1,14.7c0,8.5,6.6,14.7,15.1,14.7c8.5,0,15-6.1,15-14.7C185.4,25.5,178.8,19.4,170.4,19.4
	 M170.4,44.2c-5.6,0-9.2-4.2-9.2-10.2c0-6,3.7-10.2,9.2-10.2c5.5,0,9.1,4.2,9.1,10.2C179.5,40,175.8,44.2,170.4,44.2 M226.2,37.1
	l4.1-10.1l4.1,10.1H226.2z M153.2,20.1h-17.8v27.7h5.6V35.6h9.8v-4.3h-9.8v-6.7h12.1V20.1z M213,20.1h-5v18.3l-14.5-18.3h-3.9v27.7
	h5V29.6L209,47.9h3.9V20.1z M232.6,20.1h-4.4l-11.8,27.7h5.5l2.8-6.8H236l2.8,6.8h5.6L232.6,20.1z"/>
<g>
	<path class="st2" d="M136.8,59.6v5h-1.4V53.8h3.7c1.9,0,2.6,1.4,2.6,2.7c0,1.3-0.7,2.3-2,2.5v0c1.2,0.2,1.7,0.6,1.8,2.8
		c0,0.5,0.2,2.2,0.4,2.8h-1.4c-0.4-0.8-0.3-2.2-0.4-3.6c-0.1-1.3-1.2-1.4-1.6-1.4H136.8z M136.8,58.4h2.1c1,0,1.5-0.9,1.5-1.8
		c0-0.8-0.4-1.6-1.5-1.6h-2.1V58.4z"/>
	<path class="st2" d="M144.9,61.2c0,2.1,0.6,2.5,1.5,2.5c0.8,0,1.3-0.7,1.3-1.4h1.3c0,1.7-1,2.4-2.6,2.4c-1.6,0-2.9-0.5-2.9-3.8
		c0-2.2,0.3-4,2.9-4c2.2,0,2.7,1.2,2.7,3.7v0.6H144.9z M147.8,60.3c0-2.2-0.6-2.5-1.5-2.5c-0.8,0-1.4,0.4-1.4,2.5H147.8z"/>
	<path class="st2" d="M153.4,64.8c-1.6,0-2.7-0.7-2.6-2.5h1.4c0,0.4,0,1.5,1.3,1.5c0.7,0,1.3-0.4,1.3-1.2c0-1.3-3.8-1.4-3.8-3.6
		c0-0.8,0.5-2.1,2.6-2.1c1.3,0,2.5,0.6,2.4,2.1h-1.4c0-0.8-0.4-1.2-1.2-1.2c-0.7,0-1.2,0.4-1.2,1c0,1.3,3.8,1.3,3.8,3.6
		C156,64.1,154.9,64.8,153.4,64.8z"/>
	<path class="st2" d="M159,61.2c0,2.1,0.6,2.5,1.5,2.5c0.8,0,1.3-0.7,1.3-1.4h1.3c0,1.7-1,2.4-2.6,2.4c-1.6,0-2.9-0.5-2.9-3.8
		c0-2.2,0.3-4,2.9-4c2.2,0,2.7,1.2,2.7,3.7v0.6H159z M162,60.3c0-2.2-0.6-2.5-1.5-2.5c-0.8,0-1.4,0.4-1.4,2.5H162z"/>
	<path class="st2" d="M169.2,63.5L169.2,63.5c-0.4,0.9-1,1.2-1.9,1.2c-1.6,0-2.1-1-2.1-2.5c0-2.3,2.3-2.4,4-2.4c0-1,0-2.1-1.3-2.1
		c-0.8,0-1.3,0.6-1.2,1.4h-1.3c0.1-1.7,1-2.3,2.6-2.3c2,0,2.5,1,2.5,2.3v3.6c0,0.6,0.1,1.2,0.2,1.8h-1.4V63.5z M166.4,62.4
		c0,0.7,0.4,1.4,1.2,1.4c0.8,0,1.7-0.5,1.6-2.9C168,60.9,166.4,60.7,166.4,62.4z"/>
	<path class="st2" d="M174.1,58.2L174.1,58.2c0.5-1.2,1.2-1.3,2.4-1.3v1.3c-0.2,0-0.4-0.1-0.7-0.1c-1.4,0-1.7,1-1.7,2.1v4.5h-1.2V57
		h1.2V58.2z"/>
	<path class="st2" d="M181.8,59.5c0-1.2-0.6-1.6-1-1.6c-0.9,0-1.6,0.5-1.6,2.5c0,2.5,0.3,3.3,1.6,3.3c0.3,0,1.1-0.3,1.1-1.7h1.3
		c0,2.1-1.5,2.7-2.4,2.7c-1.6,0-2.9-0.5-2.9-3.8c0-2.2,0.3-4,2.9-4c1.5,0,2.4,0.9,2.3,2.6H181.8z"/>
	<path class="st2" d="M189.4,64.6v-5.1c0-0.9-0.3-1.6-1.3-1.6c-1.2,0-1.5,1-1.5,2.3v4.5h-1.2V53.8h1.2V58h0.1
		c0.5-0.9,1.1-1.1,2.1-1.1c1.3,0,2,0.6,2,2.4v5.4H189.4z"/>
	<path class="st2" d="M196.4,57v-1.5c0-1.5,1.1-1.8,2.2-1.8c0.3,0,0.4,0,0.6,0v0.9c-1.3-0.1-1.5,0.5-1.5,1.1V57h1.5V58h-1.5v6.6
		h-1.2V58h-1.2V57H196.4z"/>
	<path class="st2" d="M200.1,60.9c0-2.2,0.3-4,2.9-4s2.9,1.8,2.9,4c0,3.3-1.3,3.8-2.9,3.8C201.4,64.8,200.1,64.3,200.1,60.9z
		 M204.6,60.4c0-2.1-0.6-2.5-1.6-2.5c-0.9,0-1.6,0.5-1.6,2.5c0,2.5,0.3,3.3,1.6,3.3C204.3,63.7,204.6,62.9,204.6,60.4z"/>
	<path class="st2" d="M209.1,58.2L209.1,58.2c0.5-1.2,1.2-1.3,2.4-1.3v1.3c-0.2,0-0.4-0.1-0.7-0.1c-1.4,0-1.7,1-1.7,2.1v4.5h-1.2V57
		h1.2V58.2z"/>
	<path class="st2" d="M217.3,61.4v0.3c0,1.5,0.9,1.9,1.8,1.9c1.1,0,1.9-0.5,1.9-1.8c0-2.4-4.9-2.1-4.9-5.4c0-1.9,1.4-2.9,3.2-2.9
		c2,0,3.1,1,3,3.2H221c0-1.2-0.4-2-1.7-2c-0.8,0-1.7,0.4-1.7,1.6c0,2.4,4.9,2,4.9,5.5c0,2.3-1.6,3-3.4,3c-3.2,0-3.2-2.4-3.2-3.5
		H217.3z"/>
	<path class="st2" d="M228.5,57h1.2v6c0,0.5,0,1,0.1,1.6h-1.3v-0.9h0c-0.4,0.7-1.1,1.1-1.9,1.1c-1.3,0-2-0.7-2-1.9V57h1.2v5.3
		c0,0.9,0.4,1.5,1.3,1.5c0.7,0,1.5-0.5,1.5-1.8V57z"/>
	<path class="st2" d="M234.2,64.8c-1.6,0-2.7-0.7-2.6-2.5h1.4c0,0.4,0,1.5,1.3,1.5c0.7,0,1.3-0.4,1.3-1.2c0-1.3-3.8-1.4-3.8-3.6
		c0-0.8,0.5-2.1,2.6-2.1c1.3,0,2.5,0.6,2.4,2.1h-1.4c0-0.8-0.4-1.2-1.2-1.2c-0.7,0-1.2,0.4-1.2,1c0,1.3,3.8,1.3,3.8,3.6
		C236.9,64.1,235.7,64.8,234.2,64.8z"/>
	<path class="st2" d="M238.8,57v-1.5L240,55v2h1.6V58H240v4.6c0,0.5,0,1.1,1.1,1.1c0.1,0,0.3,0,0.6-0.1v0.9c-0.4,0-0.8,0.1-1.2,0.1
		c-1.2,0-1.7-0.5-1.7-1.3V58h-1.2V57H238.8z"/>
	<path class="st2" d="M246.7,63.5L246.7,63.5c-0.4,0.9-1,1.2-1.9,1.2c-1.6,0-2.1-1-2.1-2.5c0-2.3,2.3-2.4,4-2.4c0-1,0-2.1-1.3-2.1
		c-0.8,0-1.3,0.6-1.2,1.4h-1.3c0.1-1.7,1-2.3,2.6-2.3c2,0,2.5,1,2.5,2.3v3.6c0,0.6,0.1,1.2,0.2,1.8h-1.4V63.5z M243.9,62.4
		c0,0.7,0.4,1.4,1.2,1.4c0.8,0,1.7-0.5,1.6-2.9C245.5,60.9,243.9,60.7,243.9,62.4z"/>
	<path class="st2" d="M250.2,53.8h1.4v1.3h-1.4V53.8z M251.5,64.6h-1.2V57h1.2V64.6z"/>
	<path class="st2" d="M257.7,64.6v-5.2c0-0.8-0.3-1.5-1.3-1.5c-1.3,0-1.5,1.2-1.5,2.2v4.5h-1.2v-6c0-0.5,0-1.1-0.1-1.6h1.3v1h0.1
		c0.5-0.9,1-1.1,2-1.1c1.6,0,2,1,2,2.5v5.2H257.7z"/>
	<path class="st2" d="M265,63.5L265,63.5c-0.4,0.9-1,1.2-1.9,1.2c-1.6,0-2.1-1-2.1-2.5c0-2.3,2.3-2.4,4-2.4c0-1,0-2.1-1.3-2.1
		c-0.8,0-1.3,0.6-1.2,1.4h-1.3c0.1-1.7,1-2.3,2.6-2.3c2,0,2.5,1,2.5,2.3v3.6c0,0.6,0.1,1.2,0.2,1.8H265V63.5z M262.3,62.4
		c0,0.7,0.4,1.4,1.2,1.4c0.8,0,1.7-0.5,1.6-2.9C263.8,60.9,262.3,60.7,262.3,62.4z"/>
	<path class="st2" d="M270,64.6h-1.2V53.8h1.2v4h0c0.4-0.6,0.9-0.9,1.7-0.9c2.4,0,2.5,2.2,2.5,4.1c0,3.3-1.2,3.8-2.4,3.8
		c-0.8,0-1.3-0.3-1.7-1h0V64.6z M271.4,63.7c1.5,0,1.5-1.6,1.5-2.8c0-2-0.2-3.1-1.5-3.1c-1.4,0-1.4,1.6-1.4,2.6
		C270,61.7,269.8,63.7,271.4,63.7z"/>
	<path class="st2" d="M277.3,64.6h-1.2V53.8h1.2V64.6z"/>
	<path class="st2" d="M280.7,61.2c0,2.1,0.6,2.5,1.5,2.5c0.8,0,1.3-0.7,1.3-1.4h1.3c0,1.7-1,2.4-2.6,2.4c-1.6,0-2.9-0.5-2.9-3.8
		c0-2.2,0.3-4,2.9-4c2.2,0,2.7,1.2,2.7,3.7v0.6H280.7z M283.6,60.3c0-2.2-0.6-2.5-1.5-2.5c-0.8,0-1.4,0.4-1.4,2.5H283.6z"/>
	<path class="st2" d="M135.5,69.8h3.3c1.4,0,2.4,0.5,2.9,1.6c0.4,0.9,0.5,3.1,0.5,3.4c0,2.3-0.2,3.6-0.7,4.4
		c-0.6,0.9-1.7,1.4-3.6,1.4h-2.5V69.8z M136.9,79.4h1.3c1.9,0,2.6-0.7,2.6-3.2V74c0-2.2-0.7-3-2.1-3h-1.8V79.4z"/>
	<path class="st2" d="M145.7,77.2c0,2.1,0.6,2.5,1.5,2.5c0.8,0,1.3-0.7,1.3-1.4h1.3c0,1.7-1,2.4-2.6,2.4c-1.6,0-2.9-0.5-2.9-3.8
		c0-2.2,0.3-4.1,2.9-4.1c2.2,0,2.7,1.2,2.7,3.7v0.6H145.7z M148.6,76.3c0-2.2-0.6-2.5-1.5-2.5c-0.8,0-1.4,0.4-1.4,2.5H148.6z"/>
	<path class="st2" d="M151.1,73h1.4l1.7,6.4h0L156,73h1.3l-2.4,7.6h-1.6L151.1,73z"/>
	<path class="st2" d="M159.8,77.2c0,2.1,0.6,2.5,1.5,2.5c0.8,0,1.3-0.7,1.3-1.4h1.3c0,1.7-1,2.4-2.6,2.4c-1.6,0-2.9-0.5-2.9-3.8
		c0-2.2,0.3-4.1,2.9-4.1c2.2,0,2.7,1.2,2.7,3.7v0.6H159.8z M162.8,76.3c0-2.2-0.6-2.5-1.5-2.5c-0.8,0-1.4,0.4-1.4,2.5H162.8z"/>
	<path class="st2" d="M167.3,80.6h-1.2V69.8h1.2V80.6z"/>
	<path class="st2" d="M169.3,76.9c0-2.2,0.3-4.1,2.9-4.1s2.9,1.8,2.9,4.1c0,3.3-1.3,3.8-2.9,3.8C170.5,80.8,169.3,80.3,169.3,76.9z
		 M173.7,76.4c0-2.1-0.6-2.5-1.6-2.5c-0.9,0-1.6,0.4-1.6,2.5c0,2.5,0.3,3.3,1.6,3.3C173.4,79.7,173.7,78.9,173.7,76.4z"/>
	<path class="st2" d="M178.3,73.9L178.3,73.9c0.5-0.7,1-1.1,1.8-1.1c1.2,0,2.4,0.5,2.4,3.8c0,1.9-0.1,4.1-2.5,4.1
		c-0.7,0-1.2-0.3-1.7-0.9h0v3.6h-1.2V73h1.2V73.9z M181.2,76.7c0-1.1,0-2.8-1.5-2.8c-1.5,0-1.4,2.1-1.4,3.3c0,1,0.1,2.6,1.4,2.6
		C181.1,79.7,181.2,78.7,181.2,76.7z"/>
	<path class="st2" d="M188.2,80.6v-5.3c0-0.8-0.2-1.5-1.2-1.5c-0.4,0-0.9,0.2-1.1,0.5c-0.2,0.4-0.3,0.8-0.3,1.1v5.1h-1.2v-6
		c0-0.5,0-1-0.1-1.6h1.3V74h0c0.4-0.8,1-1.1,1.9-1.1c0.7,0,1.5,0.3,1.8,1c0.4-0.8,1.1-1,1.8-1c0.8,0,2.1,0.2,2.1,2v5.8H192v-5.3
		c0-0.8-0.2-1.5-1.2-1.5c-0.5,0-0.6,0-0.9,0.3c-0.4,0.3-0.4,1-0.4,1.3v5.1H188.2z"/>
	<path class="st2" d="M196.5,77.2c0,2.1,0.6,2.5,1.5,2.5c0.8,0,1.3-0.7,1.3-1.4h1.3c0,1.7-1,2.4-2.6,2.4c-1.6,0-2.9-0.5-2.9-3.8
		c0-2.2,0.3-4.1,2.9-4.1c2.2,0,2.7,1.2,2.7,3.7v0.6H196.5z M199.5,76.3c0-2.2-0.6-2.5-1.5-2.5c-0.8,0-1.4,0.4-1.4,2.5H199.5z"/>
	<path class="st2" d="M206.9,80.6v-5.3c0-0.8-0.3-1.5-1.3-1.5c-1.3,0-1.5,1.2-1.5,2.2v4.5h-1.2v-6c0-0.5,0-1-0.1-1.6h1.3v1h0.1
		c0.5-0.9,1-1.1,2-1.1c1.6,0,2,1,2,2.5v5.3H206.9z"/>
	<path class="st2" d="M210.4,73v-1.5l1.2-0.6v2h1.6V74h-1.6v4.6c0,0.5,0,1.1,1.1,1.1c0.1,0,0.3,0,0.6-0.1v0.9
		c-0.4,0-0.8,0.1-1.2,0.1c-1.2,0-1.7-0.5-1.7-1.3V74h-1.2V73H210.4z"/>
</g>
</svg>
