<?xml version="1.0" encoding="UTF-8" standalone="no"?>
<!-- Created with Inkscape (http://www.inkscape.org/) -->

<svg
   xmlns:osb="http://www.openswatchbook.org/uri/2009/osb"
   xmlns:dc="http://purl.org/dc/elements/1.1/"
   xmlns:cc="http://creativecommons.org/ns#"
   xmlns:rdf="http://www.w3.org/1999/02/22-rdf-syntax-ns#"
   xmlns:svg="http://www.w3.org/2000/svg"
   xmlns="http://www.w3.org/2000/svg"
   xmlns:sodipodi="http://sodipodi.sourceforge.net/DTD/sodipodi-0.dtd"
   xmlns:inkscape="http://www.inkscape.org/namespaces/inkscape"
   width="1052.3622"
   height="744.09448"
   id="svg3048"
   version="1.1"
   inkscape:version="0.48.0 r9654"
   sodipodi:docname="logo.svg">
  <defs
     id="defs3050">
    <linearGradient
       inkscape:collect="always"
       id="linearGradient4395"
       osb:paint="gradient">
      <stop
         style="stop-color:#ffffff;stop-opacity:1;"
         offset="0"
         id="stop4397" />
      <stop
         style="stop-color:#ffffff;stop-opacity:0;"
         offset="1"
         id="stop4399" />
    </linearGradient>
    <marker
       inkscape:stockid="Arrow1Lstart"
       orient="auto"
       refY="0.0"
       refX="0.0"
       id="Arrow1Lstart"
       style="overflow:visible">
      <path
         id="path3762"
         d="M 0.0,0.0 L 5.0,-5.0 L -12.5,0.0 L 5.0,5.0 L 0.0,0.0 z "
         style="fill-rule:evenodd;stroke:#000000;stroke-width:1.0pt;marker-start:none"
         transform="scale(0.8) translate(12.5,0)" />
    </marker>
    <filter
       inkscape:collect="always"
       id="filter5990">
      <feGaussianBlur
         inkscape:collect="always"
         stdDeviation="1.5190622"
         id="feGaussianBlur5992" />
    </filter>
    <filter
       inkscape:collect="always"
       id="filter5994">
      <feGaussianBlur
         inkscape:collect="always"
         stdDeviation="0.9522877"
         id="feGaussianBlur5996" />
    </filter>
    <filter
       inkscape:collect="always"
       id="filter5998">
      <feGaussianBlur
         inkscape:collect="always"
         stdDeviation="0.56624064"
         id="feGaussianBlur6000" />
    </filter>
    <filter
       inkscape:collect="always"
       id="filter6020">
      <feGaussianBlur
         inkscape:collect="always"
         stdDeviation="0.7445311"
         id="feGaussianBlur6022" />
    </filter>
  </defs>
  <sodipodi:namedview
     id="base"
     pagecolor="#ffffff"
     bordercolor="#666666"
     borderopacity="1.0"
     inkscape:pageopacity="0.0"
     inkscape:pageshadow="2"
     inkscape:zoom="0.35355339"
     inkscape:cx="443.7182"
     inkscape:cy="156.69883"
     inkscape:document-units="px"
     inkscape:current-layer="layer1"
     showgrid="false"
     inkscape:window-width="1378"
     inkscape:window-height="878"
     inkscape:window-x="290"
     inkscape:window-y="1072"
     inkscape:window-maximized="1" />
  <metadata
     id="metadata3053">
    <rdf:RDF>
      <cc:Work
         rdf:about="">
        <dc:format>image/svg+xml</dc:format>
        <dc:type
           rdf:resource="http://purl.org/dc/dcmitype/StillImage" />
        <dc:title></dc:title>
      </cc:Work>
    </rdf:RDF>
  </metadata>
  <g
     inkscape:label="Ebene 1"
     inkscape:groupmode="layer"
     id="layer1"
     transform="translate(0,-308.2677)">
    <rect
       style="fill:#0000ff;fill-opacity:0.94117647;stroke:none"
       id="rect2989"
       width="1268.5714"
       height="545.71429"
       x="-104.1565"
       y="1092.0533"
       rx="47"
       ry="47" />
    <g
       id="g3073"
       transform="translate(1.8953743,-9.1901038)"
       style="stroke:none;stroke-opacity:1"
       inkscape:export-filename="D:\Dokumente\2012_52N-server-template-html\52n-logo-v2.1.png"
       inkscape:export-xdpi="18.05332"
       inkscape:export-ydpi="18.05332">
      <g
         id="g5936"
         transform="translate(112,2)"
         style="fill:#ffffff;fill-opacity:1;filter:url(#filter5998)">
        <path
           d="m 322.13497,682.67889 c 0,-23.14375 -19.1475,-43.5525 -42.7125,-43.5525 -23.98624,0 -42.07999,20.83 -42.07999,44.185 0,23.98625 17.67374,43.975 42.07999,43.975 24.4075,0 42.7125,-20.8325 42.7125,-44.6075 m -19.77875,1.0525 c 0,12.62625 -6.7325,29.035 -21.67125,29.035 -16.41125,0 -23.565,-15.99 -23.565,-30.29625 0,-12.625 6.52375,-28.8225 21.46125,-28.8225 15.99125,0 23.775,15.98875 23.775,30.08375"
           style="fill:#ffffff;fill-opacity:1;fill-rule:nonzero;stroke:none"
           id="path3013-7"
           inkscape:connector-curvature="0" />
        <path
           d="m 388.83123,641.65389 c 0,0 -3.99624,-1.895 -9.04624,-1.895 -9.04875,0 -17.885,6.9425 -22.51376,11.15 l 0,-8.62625 -18.72376,0 0,83.11 18.93501,0 0,-59.965 c 5.26,-3.5775 12.41375,-9.25875 18.93501,-9.25875 3.57749,0 7.57375,1.265 8.4175,1.47375 l 3.99624,-15.98875 z m 72.58626,77.84625 -5.05125,-13.255 c -7.57375,3.575 -12.83375,5.46875 -18.72375,5.46875 -7.7825,0 -10.94125,-3.99625 -10.94125,-14.9375 l 0,-40.6075 27.1425,0 0,-13.88625 -27.1425,0 0,-23.3525 -32.4025,31.97875 0,5.26 13.4675,0 0,45.02875 c 0,17.24875 12.20125,26.08875 25.03375,26.08875 11.785,0 20.2,-3.3675 28.6175,-7.78625 m 91.735,5.68 0,-57.22875 c 0,-17.88375 -9.47125,-28.825 -23.98625,-28.825 -11.57375,0 -21.67,7.155 -31.56125,12.835 l 0,-61.8575 -18.3075,0 0,135.07625 18.94125,0 0,-59.54375 c 5.46875,-3.1575 18.93375,-10.52 25.03499,-10.52 7.15251,0 10.94001,4 10.94001,15.5725 l 0,54.49125 18.93875,0"
           style="fill:#ffffff;fill-opacity:1;fill-rule:nonzero;stroke:none"
           id="path3015-7"
           inkscape:connector-curvature="0" />
      </g>
      <path
         inkscape:connector-curvature="0"
         id="path3007-4"
         style="fill:#ffffff;fill-opacity:1;fill-rule:nonzero;stroke:none;stroke-width:1.50000000000000000;marker-start:none;filter:url(#filter5994)"
         d="m 385.69506,837.53579 -2.74375,-4.9815 c -2.74375,1.8325 -6.5025,4.27 -12.49875,4.27 -7.315,0 -11.07499,-4.87737 -12.09249,-12.19237 l 23.57125,-3.96138 3.05,-3.86475 c -2.2325,-9.649 -6.90875,-16.55762 -17.06875,-16.55762 -11.075,0 -17.07125,9.7515 -17.07125,22.14887 0,10.6675 7.21499,20.31988 18.79874,20.31988 8.02625,0 13.10875,-3.15138 16.055,-5.18113 m -8.63749,-21.94775 -19.205,3.96138 c 0,-7.82375 3.96375,-13.9175 10.2625,-13.9175 5.995,0 7.72375,5.08012 8.9425,9.95612 m 49.4825,-12.90625 -5.7925,-2.53612 -11.58126,16.15375 -10.47,-16.25975 -6.6025,3.04975 12.7,18.19 -14.42625,18.8975 5.995,2.6425 12.19125,-16.6665 10.97501,16.6665 6.8075,-2.74513 -13.41001,-19.20262 13.61375,-18.18988 z m 44.09626,16.46138 c 0,-9.956 -5.995,-18.895 -15.03875,-18.895 -4.87501,0 -9.54876,2.94387 -13.31001,5.28125 l 0,-3.86238 -6.80875,0 0,65.3311 6.80875,0 0,-25.49847 c 2.845,0.60837 6.09625,1.21725 8.435,1.21725 11.98876,0 19.91376,-9.75488 19.91376,-23.57375 m -7.31376,1.52737 c 0,7.92288 -4.67624,16.25238 -12.29625,16.25238 -3.04875,0 -5.89376,-1.01463 -8.73875,-2.02975 l 0,-23.56988 c 2.0325,-1.32362 8.435,-5.1865 11.17876,-5.1865 7.62,0 9.85624,7.524 9.85624,14.53375 m 24.48625,-44.20125 -7.0125,0 0,65.229 7.0125,0 0,-65.229 z m 48.97125,44.81013 c 0,-10.6675 -8.33,-21.13375 -19.505,-21.13375 -11.1775,0 -19.3075,10.26025 -19.3075,21.4375 0,11.6835 8.02625,21.13375 19.3075,21.13375 11.275,0 19.505,-10.16263 19.505,-21.4375 m -7.41625,0 c 0,8.43262 -4.47125,15.8525 -11.785,15.8525 -7.21375,0 -12.19375,-6.915 -12.19375,-15.54875 0,-8.53763 4.27,-15.75 11.585,-15.75 7.2125,0 12.39375,7.31487 12.39375,15.44625 m 38.60875,-20.22125 c 0,0 -1.82875,-0.50488 -3.1475,-0.50488 -4.16625,0 -8.435,3.25 -10.975,5.38238 l 0,-4.26863 -6.91125,0 0,40.13725 7.01375,0 0,-30.07862 c 2.94625,-1.82863 6.095,-4.874 9.75125,-4.874 1.3225,0 2.54,0.1025 3.25,0.30512 l 1.01875,-6.09862 z m 17.8825,0.60887 -6.91,0 0,40.03475 6.91,0 0,-40.03475 z m 1.82625,-17.06875 c 0,-2.84375 -2.33125,-5.28525 -5.27875,-5.28525 -2.94875,0 -5.28625,2.4415 -5.28625,5.28525 0,2.94863 2.3375,5.28363 5.28625,5.28363 2.9475,0 5.27875,-2.335 5.27875,-5.28363 m 47.755,57.1035 0,-27.83987 c 0,-8.73875 -4.1625,-13.61375 -10.3625,-13.61375 -6.20124,0 -11.27874,3.55512 -16.46124,6.6035 l 0,-5.18463 -6.70625,0 0,40.03475 7.01,0 0,-29.05862 c 2.95,-1.72613 9.755,-6.20113 13.21125,-6.20113 4.26874,0 6.29875,2.6425 6.29875,8.73975 l 0,26.52 7.01,0 z m 49.07625,10.97113 c 0,-6.29825 -5.68875,-10.36225 -11.99125,-12.291 l -17.17125,-5.185 12.2975,-4.98 c 6.91125,-2.74025 11.58,-7.11238 11.58,-15.74613 0,-3.1475 -1.01125,-5.28362 -2.3375,-6.90775 l 6.91,0 0,-5.896 -13.21,0 c -1.82875,-1.01112 -4.265,-1.41887 -6.6025,-1.41887 -8.4325,0 -15.345,6.09375 -15.345,14.42775 0,7.61862 4.37,11.98575 10.16625,14.32375 l -9.24875,4.06487 0,5.69088 7.31375,2.64162 -3.15125,1.11863 c -6.1925,2.23487 -11.17375,6.80375 -11.17375,13.20612 0,9.14745 9.6525,13.10888 18.29,13.10888 10.87375,0 23.67375,-4.875 23.67375,-16.15775 m -6.90875,0.7115 c 0,5.7939 -8.0275,10.26021 -16.3575,10.26021 -6.1975,0 -12.1925,-3.14404 -12.1925,-8.42921 0,-3.96488 3.34875,-7.11088 8.63375,-9.44975 l 4.77875,-2.13613 4.97625,1.52725 c 3.5575,1.11525 10.16125,3.149 10.16125,8.22763 m -5.485,-38.7085 c 0.1025,5.892 -3.1525,10.0585 -8.0325,10.0585 -5.17875,0 -8.32625,-3.96475 -8.42875,-9.85638 -0.1025,-5.89262 2.94625,-9.65237 8.2275,-9.65237 5.28625,0 8.13125,3.55525 8.23375,9.45025 m 80.165,27.02587 0,-27.94237 c 0,-8.73875 -4.3688,-13.61375 -10.5688,-13.61375 -6.0975,0 -11.1775,3.65762 -16.255,6.601 l 0,-30.27738 -6.7075,0 0,65.2325 7.0075,0 0,-29.16212 c 2.9463,-1.72513 9.755,-6.19775 13.21,-6.19775 4.2688,0 6.2988,2.6435 6.2988,8.73725 l 0,26.62262 7.015,0 z m 48.9688,-20.42237 c 0,-10.6675 -8.3301,-21.13375 -19.5063,-21.13375 -11.1775,0 -19.3038,10.26025 -19.3038,21.4375 0,11.6835 8.0238,21.13375 19.3038,21.13375 11.2787,0 19.5063,-10.16263 19.5063,-21.4375 m -7.4163,0 c 0,8.43262 -4.4675,15.8525 -11.7825,15.8525 -7.215,0 -12.195,-6.915 -12.195,-15.54875 0,-8.53763 4.265,-15.75 11.5837,-15.75 7.2151,0 12.3938,7.31487 12.3938,15.44625 m 38.6075,-20.22125 c 0,0 -1.8275,-0.50488 -3.1463,-0.50488 -4.1675,0 -8.4362,3.25 -10.975,5.38238 l 0,-4.26863 -6.9087,0 0,40.13725 7.0112,0 0,-30.07862 c 2.945,-1.82863 6.0938,-4.874 9.75,-4.874 1.3238,0 2.5438,0.1025 3.255,0.30512 l 1.0138,-6.09862 z m 17.8875,0.60887 -6.9113,0 0,40.03475 6.9113,0 0,-40.03475 z m 1.825,-17.06875 c 0,-2.84375 -2.3375,-5.28525 -5.2812,-5.28525 -2.9488,0 -5.2876,2.4415 -5.2876,5.28525 0,2.94863 2.3388,5.28363 5.2876,5.28363 2.9437,0 5.2812,-2.335 5.2812,-5.28363 m 42.37,57.1035 0,-5.7935 -23.8787,0 23.0637,-29.7715 0,-4.46975 -30.0737,0 0,5.896 21.1362,0 -22.965,30.07525 0,4.0635 32.7175,0 z m 44.9113,-20.42237 c 0,-10.6675 -8.3338,-21.13375 -19.51,-21.13375 -11.1775,0 -19.3051,10.26025 -19.3051,21.4375 0,11.6835 8.0251,21.13375 19.3051,21.13375 11.2762,0 19.51,-10.16263 19.51,-21.4375 m -7.4163,0 c 0,8.43262 -4.4738,15.8525 -11.7888,15.8525 -7.2162,0 -12.1925,-6.915 -12.1925,-15.54875 0,-8.53763 4.265,-15.75 11.5838,-15.75 7.2112,0 12.3975,7.31487 12.3975,15.44625 m 51.1038,20.42237 0,-27.83987 c 0,-8.73875 -4.1701,-13.61375 -10.3663,-13.61375 -6.1962,0 -11.275,3.55512 -16.4575,6.6035 l 0,-5.18463 -6.7062,0 0,40.03475 7.0149,0 0,-29.05862 c 2.9388,-1.72613 9.75,-6.20113 13.2063,-6.20113 4.2662,0 6.2962,2.6425 6.2962,8.73975 l 0,26.52 7.0126,0 z m 37.18498,-10.46487 c 0,-13.71725 -18.4888,-12.90375 -18.4888,-21.13863 0,-2.63775 3.05,-4.46637 5.7875,-4.46637 4.2688,0 7.3188,1.82862 9.1475,2.84375 l 2.5388,-5.28363 c -3.1525,-1.525 -6.2988,-3.04637 -11.4775,-3.04637 -6.0988,0 -12.70128,3.55512 -12.70128,10.66887 0,13.51363 18.08128,11.88625 18.08128,21.02975 0,3.04888 -3.35,5.07863 -6.5013,5.07863 -5.1825,0 -8.5313,-2.02975 -10.56748,-3.246 l -2.7425,5.58387 c 2.03,1.12113 7.00748,3.35363 13.20748,3.35363 8.6413,0 13.7163,-5.17875 13.7163,-11.3775" />
      <path
         inkscape:connector-curvature="0"
         id="path3007"
         style="fill:#56543d;fill-opacity:1;fill-rule:nonzero;stroke:none;stroke-opacity:1;stroke-width:1.50000000000000000;stroke-miterlimit:4;stroke-dasharray:none;stroke-linejoin:round;stroke-linecap:round;marker-start:none"
         d="m 383.69508,835.53579 -2.74375,-4.9815 c -2.74375,1.8325 -6.5025,4.27 -12.49875,4.27 -7.315,0 -11.07499,-4.87737 -12.09249,-12.19237 l 23.57125,-3.96138 3.05,-3.86475 c -2.2325,-9.649 -6.90875,-16.55762 -17.06875,-16.55762 -11.075,0 -17.07125,9.7515 -17.07125,22.14887 0,10.6675 7.21499,20.31988 18.79874,20.31988 8.02625,0 13.10875,-3.15138 16.055,-5.18113 m -8.63749,-21.94775 -19.205,3.96138 c 0,-7.82375 3.96375,-13.9175 10.2625,-13.9175 5.995,0 7.72375,5.08012 8.9425,9.95612 m 49.4825,-12.90625 -5.7925,-2.53612 -11.58126,16.15375 -10.47,-16.25975 -6.6025,3.04975 12.7,18.19 -14.42625,18.8975 5.995,2.6425 12.19125,-16.6665 10.97501,16.6665 6.8075,-2.74513 -13.41001,-19.20262 13.61375,-18.18988 z m 44.09625,16.46138 c 0,-9.956 -5.995,-18.895 -15.03875,-18.895 -4.875,0 -9.54875,2.94387 -13.31,5.28125 l 0,-3.86238 -6.80875,0 0,65.3311 6.80875,0 0,-25.49847 c 2.845,0.60837 6.09625,1.21725 8.435,1.21725 11.98875,0 19.91375,-9.75488 19.91375,-23.57375 m -7.31376,1.52737 c 0,7.92288 -4.67624,16.25238 -12.29624,16.25238 -3.04875,0 -5.89376,-1.01463 -8.73875,-2.02975 l 0,-23.56988 c 2.0325,-1.32362 8.435,-5.1865 11.17875,-5.1865 7.62,0 9.85624,7.524 9.85624,14.53375 m 24.48625,-44.20125 -7.0125,0 0,65.229 7.0125,0 0,-65.229 z m 48.97125,44.81013 c 0,-10.6675 -8.33,-21.13375 -19.505,-21.13375 -11.1775,0 -19.3075,10.26025 -19.3075,21.4375 0,11.6835 8.02625,21.13375 19.3075,21.13375 11.275,0 19.505,-10.16263 19.505,-21.4375 m -7.41625,0 c 0,8.43262 -4.47125,15.8525 -11.785,15.8525 -7.21375,0 -12.19375,-6.915 -12.19375,-15.54875 0,-8.53763 4.27,-15.75 11.585,-15.75 7.2125,0 12.39375,7.31487 12.39375,15.44625 m 38.60875,-20.22125 c 0,0 -1.82875,-0.50488 -3.1475,-0.50488 -4.16625,0 -8.435,3.25 -10.975,5.38238 l 0,-4.26863 -6.91125,0 0,40.13725 7.01375,0 0,-30.07862 c 2.94625,-1.82863 6.095,-4.874 9.75125,-4.874 1.3225,0 2.54,0.1025 3.25,0.30512 l 1.01875,-6.09862 z m 17.8825,0.60887 -6.91,0 0,40.03475 6.91,0 0,-40.03475 z m 1.82625,-17.06875 c 0,-2.84375 -2.33125,-5.28525 -5.27875,-5.28525 -2.94875,0 -5.28625,2.4415 -5.28625,5.28525 0,2.94863 2.3375,5.28363 5.28625,5.28363 2.9475,0 5.27875,-2.335 5.27875,-5.28363 m 47.755,57.1035 0,-27.83987 c 0,-8.73875 -4.1625,-13.61375 -10.3625,-13.61375 -6.20124,0 -11.27874,3.55512 -16.46124,6.6035 l 0,-5.18463 -6.70625,0 0,40.03475 7.01,0 0,-29.05862 c 2.95,-1.72613 9.755,-6.20113 13.21125,-6.20113 4.26874,0 6.29875,2.6425 6.29875,8.73975 l 0,26.52 7.01,0 z m 49.07625,10.97113 c 0,-6.29825 -5.68875,-10.36225 -11.99125,-12.291 l -17.17125,-5.185 12.2975,-4.98 c 6.91125,-2.74025 11.58,-7.11238 11.58,-15.74613 0,-3.1475 -1.01125,-5.28362 -2.3375,-6.90775 l 6.91,0 0,-5.896 -13.21,0 c -1.82875,-1.01112 -4.265,-1.41887 -6.6025,-1.41887 -8.4325,0 -15.345,6.09375 -15.345,14.42775 0,7.61862 4.37,11.98575 10.16625,14.32375 l -9.24875,4.06487 0,5.69088 7.31375,2.64162 -3.15125,1.11863 c -6.1925,2.23487 -11.17375,6.80375 -11.17375,13.20612 0,9.14745 9.6525,13.10888 18.29,13.10888 10.87375,0 23.67375,-4.875 23.67375,-16.15775 m -6.90875,0.7115 c 0,5.7939 -8.0275,10.26021 -16.3575,10.26021 -6.1975,0 -12.1925,-3.14404 -12.1925,-8.42921 0,-3.96488 3.34875,-7.11088 8.63375,-9.44975 l 4.77875,-2.13613 4.97625,1.52725 c 3.5575,1.11525 10.16125,3.149 10.16125,8.22763 m -5.485,-38.7085 c 0.1025,5.892 -3.1525,10.0585 -8.0325,10.0585 -5.17875,0 -8.32625,-3.96475 -8.42875,-9.85638 -0.1025,-5.89262 2.94625,-9.65237 8.2275,-9.65237 5.28625,0 8.13125,3.55525 8.23375,9.45025 m 80.165,27.02587 0,-27.94237 c 0,-8.73875 -4.36875,-13.61375 -10.56875,-13.61375 -6.0975,0 -11.1775,3.65762 -16.255,6.601 l 0,-30.27738 -6.7075,0 0,65.2325 7.0075,0 0,-29.16212 c 2.94625,-1.72513 9.755,-6.19775 13.21,-6.19775 4.26875,0 6.29875,2.6435 6.29875,8.73725 l 0,26.62262 7.015,0 z m 48.96876,-20.42237 c 0,-10.6675 -8.33001,-21.13375 -19.50626,-21.13375 -11.1775,0 -19.30375,10.26025 -19.30375,21.4375 0,11.6835 8.02375,21.13375 19.30375,21.13375 11.27875,0 19.50626,-10.16263 19.50626,-21.4375 m -7.41625,0 c 0,8.43262 -4.4675,15.8525 -11.7825,15.8525 -7.21501,0 -12.19501,-6.915 -12.19501,-15.54875 0,-8.53763 4.265,-15.75 11.58375,-15.75 7.21501,0 12.39375,7.31487 12.39375,15.44625 m 38.6075,-20.22125 c 0,0 -1.8275,-0.50488 -3.14625,-0.50488 -4.1675,0 -8.43625,3.25 -10.975,5.38238 l 0,-4.26863 -6.90875,0 0,40.13725 7.01125,0 0,-30.07862 c 2.945,-1.82863 6.09375,-4.874 9.75,-4.874 1.32375,0 2.54375,0.1025 3.255,0.30512 l 1.01375,-6.09862 z m 17.8875,0.60887 -6.91125,0 0,40.03475 6.91125,0 0,-40.03475 z m 1.82501,-17.06875 c 0,-2.84375 -2.33751,-5.28525 -5.28125,-5.28525 -2.94876,0 -5.28751,2.4415 -5.28751,5.28525 0,2.94863 2.33875,5.28363 5.28751,5.28363 2.94374,0 5.28125,-2.335 5.28125,-5.28363 m 42.36999,57.1035 0,-5.7935 -23.87874,0 23.06375,-29.7715 0,-4.46975 -30.07375,0 0,5.896 21.13625,0 -22.96501,30.07525 0,4.0635 32.7175,0 z m 44.91126,-20.42237 c 0,-10.6675 -8.33376,-21.13375 -19.51,-21.13375 -11.1775,0 -19.30501,10.26025 -19.30501,21.4375 0,11.6835 8.02501,21.13375 19.30501,21.13375 11.27624,0 19.51,-10.16263 19.51,-21.4375 m -7.41625,0 c 0,8.43262 -4.47376,15.8525 -11.78876,15.8525 -7.21625,0 -12.1925,-6.915 -12.1925,-15.54875 0,-8.53763 4.265,-15.75 11.58375,-15.75 7.21125,0 12.39751,7.31487 12.39751,15.44625 m 51.10375,20.42237 0,-27.83987 c 0,-8.73875 -4.17001,-13.61375 -10.36626,-13.61375 -6.19624,0 -11.275,3.55512 -16.4575,6.6035 l 0,-5.18463 -6.70624,0 0,40.03475 7.01499,0 0,-29.05862 c 2.93875,-1.72613 9.75,-6.20113 13.20625,-6.20113 4.26625,0 6.29625,2.6425 6.29625,8.73975 l 0,26.52 7.01251,0 z m 37.18501,-10.46487 c 0,-13.71725 -18.48877,-12.90375 -18.48877,-21.13863 0,-2.63775 3.04997,-4.46637 5.78747,-4.46637 4.2688,0 7.3188,1.82862 9.1475,2.84375 l 2.5388,-5.28363 c -3.1525,-1.525 -6.2988,-3.04637 -11.4775,-3.04637 -6.09876,0 -12.70126,3.55512 -12.70126,10.66887 0,13.51363 18.08126,11.88625 18.08126,21.02975 0,3.04888 -3.35,5.07863 -6.5013,5.07863 -5.18246,0 -8.53122,-2.02975 -10.56746,-3.246 l -2.7425,5.58387 c 2.02999,1.12113 7.0075,3.35363 13.20746,3.35363 8.6413,0 13.7163,-5.17875 13.7163,-11.3775" />
      <path
         inkscape:connector-curvature="0"
         id="path3005-1"
         style="fill:#ffffff;fill-opacity:1;fill-rule:nonzero;stroke:none;filter:url(#filter6020)"
         d="m 67.40329,514.17942 c 0,0 -34.72413,0 -34.72413,34.7225 l 0,225.19237 c 0,0 0,34.73 34.72413,34.73 l 231.53338,0 c 0,0 34.7225,0 34.7225,-34.73 l 0,-225.19237 c 0,0 0,-34.7225 -34.72249,-34.7225 l -231.53339,0" />
      <path
         inkscape:connector-curvature="0"
         id="path3005"
         style="fill:#69ceea;fill-opacity:1;fill-rule:nonzero;stroke:none;stroke-opacity:1;stroke-width:4;stroke-miterlimit:4;stroke-dasharray:none"
         d="m 64.985464,512.17942 c 0,0 -34.72413,0 -34.72413,34.7225 l 0,225.19237 c 0,0 0,34.73 34.72413,34.73 l 231.533366,0 c 0,0 34.7225,0 34.7225,-34.73 l 0,-225.19237 c 0,0 0,-34.7225 -34.72249,-34.7225 l -231.533376,0" />
      <path
         inkscape:connector-curvature="0"
         id="path3009"
         style="fill:#ffffff;fill-opacity:1;fill-rule:nonzero;stroke:none;stroke-opacity:1"
         d="m 143.59872,721.04692 c 0,-23.14375 -19.77876,-37.87 -42.70988,-37.87 -2.107001,0 -2.947751,0 -4.421501,0.20875 l 4.208121,-25.8775 38.08338,0 0,-15.9925 -53.652251,0 -9.258375,58.49 c 6.3125,-1.04875 11.57225,-1.26125 17.463375,-1.26125 19.778371,0 29.669501,8.415 29.669501,23.775 0,18.095 -11.15088,25.03738 -24.409251,25.03738 -8.833875,0 -16.8325,-2.73488 -22.723625,-6.10113 l -8.205,14.94 c 7.576625,4.83975 20.19775,7.78263 31.138625,7.78263 24.408251,0 44.816871,-17.0415 44.816871,-43.13138 m 88.15763,-52.38875 c 0,-21.0375 -17.88375,-30.93125 -36.19,-30.93125 -11.57125,0 -23.35375,4.84125 -32.8225,11.995 l 8.8375,11.99 c 9.0475,-5.46875 16.41125,-9.0475 25.24875,-9.0475 9.4675,0 15.56875,5.895 15.56875,15.36375 0,9.88875 -22.0925,24.615 -30.29625,31.1375 l -18.935,15.36 0,9.8875 68.17,0 0,-14.095 -39.3475,0 19.14875,-13.68 c 7.78375,-5.25625 20.6175,-16.40875 20.6175,-27.98" />
      <path
         inkscape:connector-curvature="0"
         id="path3011"
         style="fill:#56543d;fill-opacity:1;fill-rule:nonzero;stroke:none;stroke-opacity:1"
         d="m 331.06633,724.41317 0,-57.0175 c 0,-17.8825 -9.25875,-28.82375 -23.77625,-28.82375 -11.78375,0 -21.8825,6.9425 -31.7725,12.6225 l 0,-9.67875 -18.30499,0 0,82.8975 18.93749,0 0,-59.54375 c 5.47125,-2.9425 18.935,-10.30875 25.03625,-10.30875 7.155,0 10.94126,3.78875 10.94126,15.36125 l 0,54.49125 18.93875,0" />
      <path
         inkscape:connector-curvature="0"
         id="path3013"
         style="fill:#69ceea;fill-opacity:1;fill-rule:nonzero;stroke:none;stroke-opacity:1;stroke-width:4;stroke-miterlimit:4;stroke-dasharray:none"
         d="m 431.84758,681.91192 c 0,-23.14375 -19.1475,-43.5525 -42.7125,-43.5525 -23.98624,0 -42.07999,20.83 -42.07999,44.185 0,23.98625 17.67374,43.975 42.07999,43.975 24.4075,0 42.7125,-20.8325 42.7125,-44.6075 m -19.77875,1.0525 c 0,12.62625 -6.7325,29.035 -21.67125,29.035 -16.41125,0 -23.565,-15.99 -23.565,-30.29625 0,-12.625 6.52375,-28.8225 21.46125,-28.8225 15.99125,0 23.775,15.98875 23.775,30.08375" />
      <path
         inkscape:connector-curvature="0"
         id="path3015"
         style="fill:#56543d;fill-opacity:1;fill-rule:nonzero;stroke:none;stroke-opacity:1;stroke-width:4;stroke-miterlimit:4;stroke-dasharray:none"
         d="m 498.54383,640.88692 c 0,0 -3.99624,-1.895 -9.04624,-1.895 -9.04875,0 -17.885,6.9425 -22.51376,11.15 l 0,-8.62625 -18.72375,0 0,83.11 18.935,0 0,-59.965 c 5.26,-3.5775 12.41375,-9.25875 18.93501,-9.25875 3.57749,0 7.57375,1.265 8.4175,1.47375 l 3.99624,-15.98875 z m 72.58626,77.84625 -5.05125,-13.255 c -7.57375,3.575 -12.83375,5.46875 -18.72375,5.46875 -7.7825,0 -10.94125,-3.99625 -10.94125,-14.9375 l 0,-40.6075 27.1425,0 0,-13.88625 -27.1425,0 0,-23.3525 -32.4025,31.97875 0,5.26 13.4675,0 0,45.02875 c 0,17.24875 12.20125,26.08875 25.03375,26.08875 11.785,0 20.2,-3.3675 28.6175,-7.78625 m 91.735,5.68 0,-57.22875 c 0,-17.88375 -9.47125,-28.825 -23.98625,-28.825 -11.57375,0 -21.67,7.155 -31.56125,12.835 l 0,-61.8575 -18.3075,0 0,135.07625 18.94125,0 0,-59.54375 c 5.46875,-3.1575 18.93375,-10.52 25.03499,-10.52 7.15251,0 10.94001,4 10.94001,15.5725 l 0,54.49125 18.93875,0" />
    </g>
    <rect
       style="fill:#0000ff;fill-opacity:0.94117647;stroke:#ffffff;stroke-width:4;stroke-linecap:round;stroke-linejoin:round;stroke-miterlimit:4;stroke-opacity:1;stroke-dasharray:none;stroke-dashoffset:0"
       id="rect4393"
       width="2.8571429"
       height="5.7142859"
       x="804.28571"
       y="702.66589"
       transform="translate(0,308.2677)"
       rx="47"
       ry="5.7142859" />
  </g>
</svg>
